<svg version="1.1" xmlns="http://www.w3.org/2000/svg" viewBox="0 0 2015.2857142857142 939.8274339092804" width="2015.2857142857142" height="939.8274339092804">
  <!-- svg-source:excalidraw -->
  
  <defs>
    <style class="style-fonts">
      @font-face {
        font-family: "Virgil";
        src: url("https://excalidraw.com/Virgil.woff2");
      }
      @font-face {
        font-family: "Cascadia";
        src: url("https://excalidraw.com/Cascadia.woff2");
      }
      @font-face {
        font-family: "Assistant";
        src: url("https://excalidraw.com/Assistant-Regular.woff2");
      }
    </style>
    
  </defs>
  <rect x="0" y="0" width="2015.2857142857142" height="939.8274339092804" fill="#ffffff"></rect><g stroke-linecap="round" transform="translate(122.28571428571422 20) rotate(0 190 39.5)"><path d="M19.75 0 C116.23 -1.91, 215.58 -1.81, 360.25 0 M19.75 0 C138.93 -0.72, 257.75 -1.56, 360.25 0 M360.25 0 C371.46 0.73, 381.3 5.22, 380 19.75 M360.25 0 C373.52 -2.3, 379.21 5.17, 380 19.75 M380 19.75 C379.83 27.49, 380.23 36.77, 380 59.25 M380 19.75 C380.98 29.99, 380.12 42.05, 380 59.25 M380 59.25 C380.04 72.17, 372.43 77.1, 360.25 79 M380 59.25 C379.93 74.25, 374.46 80.31, 360.25 79 M360.25 79 C251.35 78.14, 142.64 77.88, 19.75 79 M360.25 79 C247.22 80.75, 133.1 80.27, 19.75 79 M19.75 79 C5.09 80.2, -1.74 73.53, 0 59.25 M19.75 79 C6.33 81.15, 1.84 70.14, 0 59.25 M0 59.25 C1.33 47.82, -0.24 32.23, 0 19.75 M0 59.25 C0.8 44.17, 0.76 27.81, 0 19.75 M0 19.75 C-1.69 6.67, 4.63 -0.3, 19.75 0 M0 19.75 C0.58 6.66, 6.5 0.2, 19.75 0" stroke="#1e1e1e" stroke-width="2" fill="none"></path></g><g transform="translate(285.2357150486537 47) rotate(0 27.049999237060547 12.5)"><text x="27.049999237060547" y="17.52" font-family="Virgil, Segoe UI Emoji" font-size="20px" fill="#1e1e1e" text-anchor="middle" style="white-space: pre;" direction="ltr" dominant-baseline="alphabetic">Client</text></g><g stroke-linecap="round" transform="translate(599.2857142857142 17) rotate(0 190 39.5)"><path d="M19.75 0 C132.26 -0.47, 245.05 0.19, 360.25 0 M19.75 0 C135.02 -2, 251.12 -1.87, 360.25 0 M360.25 0 C373.05 0.42, 381.44 5.04, 380 19.75 M360.25 0 C375.39 -1.92, 377.71 6.68, 380 19.75 M380 19.75 C381.47 30.2, 380.25 40.48, 380 59.25 M380 19.75 C378.81 28.31, 380.3 36.83, 380 59.25 M380 59.25 C378.66 73.51, 372.75 77.47, 360.25 79 M380 59.25 C379.67 71.43, 372.85 77.69, 360.25 79 M360.25 79 C253.59 78.75, 147.66 78.48, 19.75 79 M360.25 79 C268.37 79.26, 174.72 79.74, 19.75 79 M19.75 79 C5.54 77.16, -0.86 71.37, 0 59.25 M19.75 79 C6.57 80.62, 0.16 72.66, 0 59.25 M0 59.25 C-1.15 50.7, 0.92 44.05, 0 19.75 M0 59.25 C0.9 50.65, 0.38 41.61, 0 19.75 M0 19.75 C0.36 4.77, 5.54 -0.89, 19.75 0 M0 19.75 C-0.99 7.4, 5.71 -0.16, 19.75 0" stroke="#1e1e1e" stroke-width="2" fill="none"></path></g><g transform="translate(758.4357139042445 44) rotate(0 30.850000381469727 12.5)"><text x="30.850000381469727" y="17.52" font-family="Virgil, Segoe UI Emoji" font-size="20px" fill="#1e1e1e" text-anchor="middle" style="white-space: pre;" direction="ltr" dominant-baseline="alphabetic">Server</text></g><g stroke-linecap="round" transform="translate(1075.2857142857142 17) rotate(0 190 39.5)"><path d="M19.75 0 C99.22 -1.24, 177.78 -0.6, 360.25 0 M19.75 0 C145.9 0.76, 270.71 1.52, 360.25 0 M360.25 0 C374.75 -0.57, 380.09 8.11, 380 19.75 M360.25 0 C372.81 0.9, 379.9 6.25, 380 19.75 M380 19.75 C378.03 30.96, 381.71 45.98, 380 59.25 M380 19.75 C378.88 30.94, 379.16 44.4, 380 59.25 M380 59.25 C379.54 71.62, 373.83 80.05, 360.25 79 M380 59.25 C382.04 70.12, 375.68 79.61, 360.25 79 M360.25 79 C251.35 78.84, 140.98 79.63, 19.75 79 M360.25 79 C284.53 76.23, 208.67 76.66, 19.75 79 M19.75 79 C4.85 79.17, 1.12 73.43, 0 59.25 M19.75 79 C8.06 77.34, -0.22 70.67, 0 59.25 M0 59.25 C0.86 47.15, -0.53 30.65, 0 19.75 M0 59.25 C-0.29 49.49, -0.84 39.78, 0 19.75 M0 19.75 C1.44 5.52, 4.69 0.9, 19.75 0 M0 19.75 C-2.11 7.23, 4.37 -2.24, 19.75 0" stroke="#1e1e1e" stroke-width="2" fill="none"></path></g><g transform="translate(1126.9440547398158 44) rotate(0 138.34165954589844 12.5)"><text x="138.34165954589844" y="17.52" font-family="Virgil, Segoe UI Emoji" font-size="20px" fill="#1e1e1e" text-anchor="middle" style="white-space: pre;" direction="ltr" dominant-baseline="alphabetic">Module (Handler underneath)</text></g><g stroke-linecap="round"><g transform="translate(292.2857142857142 100) rotate(0 3 415)"><path d="M0.78 -0.2 C1.68 137.98, 4.9 690.65, 5.87 828.88 M-0.27 -1.35 C0.42 136.95, 3.78 691.26, 4.86 829.83" stroke="#1e1e1e" stroke-width="2" fill="none"></path></g></g><mask></mask><g stroke-linecap="round"><g transform="translate(784.2857142857142 97) rotate(0 3 415)"><path d="M0.79 1.03 C1.73 139.18, 5.65 690.87, 6.56 829.15 M-0.26 0.52 C0.5 138.79, 4.92 692.21, 5.9 830.24" stroke="#1e1e1e" stroke-width="2" fill="none"></path></g></g><mask></mask><g stroke-linecap="round"><g transform="translate(1277.2857142857142 95) rotate(0 3 415)"><path d="M-0.26 0.83 C0.94 139.18, 5.17 691.35, 6.35 829.47 M1.8 0.22 C2.95 138.78, 4.8 692.32, 5.59 830.73" stroke="#1e1e1e" stroke-width="2" fill="none"></path></g></g><mask></mask><g transform="translate(64.81012658227849 164.41229656419546) rotate(0 -18.009041591320056 21.924050632911303)" stroke="none"><path fill="#1e1e1e" d="M -1.00,1.75 Q -1.00,1.75 -2.56,0.83 -4.13,-0.07 -5.26,-0.61 -6.39,-1.16 -7.62,-1.54 -8.86,-1.93 -11.59,-2.20 -14.33,-2.47 -15.84,-2.48 -17.36,-2.50 -18.67,-2.47 -19.98,-2.44 -22.14,-2.14 -24.31,-1.83 -26.29,-1.11 -28.27,-0.38 -29.28,0.23 -30.28,0.85 -32.65,2.93 -35.02,5.00 -36.25,6.34 -37.49,7.68 -38.41,9.42 -39.34,11.16 -39.96,13.60 -40.59,16.05 -40.79,17.58 -40.98,19.11 -41.14,21.24 -41.30,23.38 -40.94,25.75 -40.59,28.12 -40.13,29.55 -39.68,30.99 -38.90,32.61 -38.12,34.24 -36.55,36.21 -34.98,38.18 -33.80,39.47 -32.61,40.77 -30.95,41.91 -29.29,43.05 -25.34,44.19 -21.40,45.33 -18.59,45.85 -15.79,46.37 -11.40,45.70 -7.01,45.03 -4.91,44.80 -2.80,44.56 -1.29,42.81 0.21,41.06 1.34,38.83 2.46,36.59 3.17,34.73 3.88,32.87 4.38,30.99 4.88,29.11 5.03,27.47 5.18,25.83 5.29,23.82 5.40,21.80 4.58,19.41 3.76,17.02 2.29,14.31 0.81,11.60 -0.07,10.43 -0.97,9.26 -1.81,8.37 -2.65,7.49 -3.86,5.46 -5.06,3.44 -3.36,1.12 -1.67,-1.19 -1.43,-1.42 -1.20,-1.66 -0.90,-1.81 -0.60,-1.95 -0.28,-2.00 0.04,-2.05 0.37,-1.99 0.70,-1.92 0.99,-1.76 1.27,-1.60 1.50,-1.35 1.72,-1.11 1.85,-0.80 1.98,-0.50 2.01,-0.17 2.04,0.15 1.96,0.48 1.88,0.80 1.71,1.08 1.53,1.36 1.27,1.57 1.01,1.78 0.70,1.89 0.39,2.01 0.06,2.02 -0.26,2.03 -0.58,1.93 -0.90,1.84 -1.17,1.64 -1.44,1.45 -1.64,1.18 -1.83,0.91 -1.93,0.60 -2.03,0.28 -2.02,-0.04 -2.01,-0.37 -1.90,-0.69 -1.78,-1.00 -1.58,-1.26 -1.37,-1.52 -1.09,-1.70 -0.81,-1.88 -0.49,-1.96 -0.17,-2.04 0.15,-2.01 0.48,-1.99 0.79,-1.86 1.09,-1.73 1.34,-1.51 1.59,-1.29 1.75,-1.00 1.92,-0.71 1.98,-0.38 2.05,-0.06 2.00,0.26 1.96,0.59 1.81,0.89 1.67,1.19 1.67,1.19 1.67,1.19 1.05,3.01 0.43,4.84 1.27,5.95 2.11,7.05 3.04,8.45 3.97,9.84 5.16,11.80 6.35,13.76 6.77,14.82 7.18,15.88 7.71,17.62 8.23,19.36 8.31,20.65 8.39,21.93 8.31,24.08 8.23,26.24 7.91,28.05 7.60,29.86 7.01,31.86 6.43,33.86 5.65,35.84 4.86,37.82 3.53,40.37 2.20,42.91 0.06,45.01 -2.08,47.11 -4.34,47.46 -6.60,47.81 -11.42,48.50 -16.25,49.20 -19.23,48.69 -22.22,48.19 -26.60,46.92 -30.98,45.65 -33.02,44.30 -35.06,42.95 -36.23,41.55 -37.40,40.15 -39.25,37.91 -41.10,35.68 -42.00,33.76 -42.91,31.83 -43.25,30.22 -43.58,28.60 -44.03,25.91 -44.48,23.23 -44.40,20.88 -44.32,18.53 -43.96,16.92 -43.61,15.31 -42.94,12.49 -42.27,9.68 -41.19,7.51 -40.12,5.34 -38.77,3.84 -37.43,2.35 -34.78,-0.12 -32.14,-2.60 -30.88,-3.17 -29.63,-3.73 -27.35,-4.73 -25.06,-5.73 -22.50,-6.32 -19.94,-6.90 -18.60,-6.84 -17.25,-6.78 -15.70,-6.72 -14.15,-6.66 -11.96,-6.65 -9.77,-6.64 -8.59,-6.34 -7.42,-6.03 -5.90,-5.45 -4.38,-4.87 -3.27,-4.19 -2.16,-3.52 -0.58,-2.63 1.00,-1.75 1.19,-1.60 1.39,-1.46 1.54,-1.27 1.70,-1.08 1.80,-0.86 1.91,-0.64 1.96,-0.41 2.01,-0.17 2.00,0.07 1.99,0.31 1.93,0.54 1.86,0.78 1.74,0.99 1.62,1.20 1.45,1.38 1.28,1.56 1.08,1.69 0.87,1.82 0.64,1.90 0.41,1.97 0.17,1.99 -0.07,2.02 -0.31,1.98 -0.55,1.94 -0.77,1.84 -1.00,1.75 -1.00,1.75 L -1.00,1.75 Z"></path></g><g transform="translate(43.669077757685386 216.873417721519) rotate(0 -10.962025316455652 43.45660036166362)" stroke="none"><path fill="#1e1e1e" d="M 1.75,0 Q 1.75,0 1.76,1.80 1.78,3.60 1.71,5.94 1.65,8.28 1.60,10.62 1.56,12.97 1.52,15.54 1.49,18.11 1.91,21.59 2.33,25.07 2.51,27.30 2.68,29.52 2.75,33.20 2.82,36.88 2.92,38.64 3.02,40.41 3.32,41.96 3.61,43.51 3.77,44.63 3.94,45.76 3.24,47.13 2.55,48.51 1.31,49.85 0.07,51.19 -0.79,52.35 -1.66,53.52 -3.36,54.99 -5.06,56.46 -6.65,57.89 -8.24,59.32 -11.40,62.38 -14.57,65.45 -16.35,67.38 -18.13,69.32 -19.30,70.82 -20.47,72.31 -21.09,73.40 -21.70,74.48 -21.82,75.59 -21.95,76.70 -22.05,78.27 -22.14,79.84 -22.13,80.98 -22.11,82.13 -21.67,83.15 -21.23,84.17 -21.22,84.45 -21.20,84.72 -21.26,84.99 -21.31,85.27 -21.43,85.52 -21.54,85.77 -21.71,85.98 -21.89,86.20 -22.11,86.36 -22.33,86.53 -22.58,86.64 -22.83,86.75 -23.10,86.80 -23.37,86.84 -23.65,86.82 -23.92,86.80 -24.19,86.72 -24.45,86.63 -24.68,86.49 -24.92,86.34 -25.11,86.15 -25.30,85.95 -25.44,85.71 -25.58,85.47 -25.66,85.21 -25.74,84.94 -25.68,84.35 -25.62,83.75 -25.44,83.43 -25.25,83.11 -24.97,82.86 -24.70,82.62 -24.36,82.48 -24.01,82.33 -23.65,82.31 -23.28,82.28 -22.92,82.38 -22.56,82.47 -22.25,82.67 -21.94,82.87 -21.71,83.16 -21.48,83.45 -21.36,83.80 -21.24,84.15 -21.23,84.52 -21.22,84.89 -21.33,85.24 -21.45,85.60 -21.67,85.89 -21.88,86.19 -22.19,86.41 -22.49,86.62 -22.84,86.72 -23.20,86.83 -23.57,86.81 -23.94,86.80 -24.28,86.67 -24.63,86.54 -24.92,86.30 -25.20,86.07 -25.40,85.75 -25.59,85.44 -25.68,85.08 -25.77,84.72 -25.73,84.35 -25.70,83.98 -25.55,83.65 -25.40,83.31 -25.15,83.04 -24.90,82.76 -24.58,82.58 -24.25,82.40 -23.89,82.34 -23.52,82.27 -23.16,82.33 -22.79,82.38 -22.46,82.55 -22.13,82.72 -21.87,82.98 -21.61,83.24 -21.45,83.58 -21.29,83.91 -21.25,84.28 -21.20,84.64 -21.22,84.41 -21.23,84.17 -21.22,84.45 -21.20,84.72 -21.26,84.99 -21.31,85.27 -21.43,85.52 -21.54,85.77 -21.71,85.98 -21.89,86.19 -22.11,86.36 -22.33,86.53 -22.58,86.64 -22.83,86.75 -23.10,86.80 -23.37,86.84 -23.65,86.82 -23.92,86.80 -24.19,86.72 -24.45,86.63 -24.68,86.49 -24.92,86.34 -25.11,86.15 -25.30,85.95 -25.44,85.71 -25.58,85.47 -25.66,85.21 -25.74,84.94 -25.85,84.85 -25.95,84.76 -26.11,83.35 -26.26,81.95 -26.13,80.74 -26.00,79.54 -25.83,77.69 -25.66,75.85 -25.16,74.22 -24.65,72.60 -23.79,71.48 -22.93,70.37 -21.68,68.82 -20.43,67.27 -18.65,65.20 -16.87,63.14 -13.76,59.98 -10.66,56.81 -9.15,55.24 -7.64,53.67 -6.28,52.31 -4.93,50.95 -3.91,49.69 -2.88,48.44 -1.78,47.26 -0.68,46.08 -0.15,45.03 0.37,43.99 0.18,42.23 0.00,40.48 0.03,38.71 0.06,36.94 -0.02,33.35 -0.12,29.76 -0.32,27.60 -0.53,25.44 -1.01,21.78 -1.49,18.12 -1.52,15.54 -1.56,12.97 -1.60,10.62 -1.65,8.28 -1.71,5.94 -1.78,3.60 -1.76,1.80 -1.75,0 -1.72,-0.20 -1.70,-0.41 -1.62,-0.61 -1.55,-0.81 -1.43,-0.98 -1.31,-1.16 -1.15,-1.30 -0.99,-1.44 -0.80,-1.54 -0.62,-1.63 -0.41,-1.68 -0.21,-1.74 0.00,-1.74 0.21,-1.74 0.41,-1.68 0.62,-1.63 0.80,-1.54 0.99,-1.44 1.15,-1.30 1.31,-1.16 1.43,-0.98 1.55,-0.81 1.62,-0.61 1.70,-0.41 1.72,-0.20 1.75,0.00 1.75,0.00 L 1.75,0 Z"></path></g><g transform="translate(44.45207956600359 266.2025316455697) rotate(0 11.74502712477397 12.919529837251389)" stroke="none"><path fill="#1e1e1e" d="M 1.30,-1.08 Q 1.30,-1.08 2.45,0.24 3.60,1.57 5.40,4.01 7.20,6.45 8.59,8.13 9.98,9.80 12.35,12.31 14.72,14.82 16.18,16.35 17.63,17.89 19.60,19.89 21.56,21.89 23.02,23.37 24.48,24.85 24.61,25.03 24.75,25.22 24.81,25.43 24.88,25.65 24.87,25.88 24.86,26.10 24.78,26.32 24.70,26.53 24.56,26.71 24.42,26.88 24.23,27.00 24.03,27.13 23.81,27.18 23.59,27.23 23.37,27.21 23.14,27.19 22.93,27.10 22.72,27.01 22.56,26.86 22.39,26.71 22.28,26.51 22.17,26.31 22.12,26.09 22.08,25.87 22.11,25.64 22.15,25.42 22.25,25.21 22.35,25.01 22.51,24.85 22.67,24.69 22.88,24.59 23.08,24.49 23.30,24.46 23.53,24.43 23.75,24.48 23.98,24.52 24.17,24.63 24.37,24.74 24.52,24.91 24.67,25.08 24.76,25.29 24.85,25.50 24.87,25.73 24.88,25.95 24.83,26.17 24.77,26.39 24.65,26.59 24.53,26.78 24.35,26.92 24.17,27.06 23.96,27.14 23.74,27.21 23.52,27.22 23.29,27.22 23.07,27.16 22.86,27.09 22.67,26.95 22.49,26.82 22.49,26.82 22.49,26.82 21.02,25.35 19.56,23.87 17.57,21.88 15.57,19.89 14.07,18.39 12.58,16.88 10.11,14.35 7.64,11.83 6.12,10.14 4.61,8.44 2.75,6.13 0.90,3.82 -0.20,2.45 -1.30,1.08 -1.41,0.91 -1.52,0.74 -1.59,0.54 -1.66,0.35 -1.67,0.15 -1.69,-0.05 -1.66,-0.25 -1.63,-0.45 -1.55,-0.64 -1.47,-0.83 -1.35,-0.99 -1.23,-1.16 -1.07,-1.29 -0.92,-1.42 -0.73,-1.51 -0.55,-1.60 -0.35,-1.64 -0.15,-1.69 0.05,-1.68 0.25,-1.67 0.45,-1.62 0.65,-1.56 0.82,-1.46 1.00,-1.36 1.15,-1.22 1.30,-1.08 1.30,-1.08 L 1.30,-1.08 Z"></path></g><g transform="translate(36.62206148282098 238.79746835443052) rotate(0 -13.311030741410491 -9.787522603978346)" stroke="none"><path fill="#1e1e1e" d="M -1.33,1.52 Q -1.33,1.52 -3.07,-0.12 -4.80,-1.77 -6.40,-3.14 -7.99,-4.52 -10.69,-6.70 -13.38,-8.88 -15.41,-10.49 -17.44,-12.11 -20.27,-13.89 -23.09,-15.67 -24.49,-14.99 -25.89,-14.31 -26.03,-14.43 -26.18,-14.55 -26.30,-14.70 -26.42,-14.85 -26.49,-15.03 -26.57,-15.20 -26.60,-15.39 -26.63,-15.58 -26.62,-15.77 -26.61,-15.96 -26.55,-16.14 -26.49,-16.32 -26.39,-16.48 -26.29,-16.65 -26.15,-16.78 -26.01,-16.91 -25.85,-17.01 -25.68,-17.11 -25.50,-17.16 -25.32,-17.22 -25.13,-17.23 -24.94,-17.23 -24.75,-17.20 -24.56,-17.16 -24.39,-17.08 -24.22,-17.00 -23.85,-16.25 -23.47,-15.51 -23.54,-15.26 -23.60,-15.01 -23.74,-14.80 -23.88,-14.58 -24.09,-14.43 -24.29,-14.27 -24.53,-14.18 -24.77,-14.10 -25.03,-14.09 -25.28,-14.09 -25.53,-14.17 -25.77,-14.24 -25.98,-14.40 -26.18,-14.55 -26.33,-14.76 -26.48,-14.97 -26.55,-15.21 -26.62,-15.46 -26.61,-15.72 -26.60,-15.97 -26.51,-16.21 -26.42,-16.45 -26.26,-16.65 -26.09,-16.85 -25.88,-16.98 -25.66,-17.12 -25.41,-17.18 -25.16,-17.23 -24.91,-17.21 -24.65,-17.19 -24.42,-17.08 -24.18,-16.98 -23.99,-16.81 -23.80,-16.63 -23.68,-16.41 -23.56,-16.18 -23.51,-15.93 -23.47,-15.68 -23.51,-15.43 -23.54,-15.17 -23.66,-14.94 -23.78,-14.72 -23.96,-14.54 -24.14,-14.36 -24.37,-14.25 -24.60,-14.14 -24.86,-14.10 -25.11,-14.07 -25.36,-14.12 -25.61,-14.18 -25.84,-14.30 -26.06,-14.43 -26.23,-14.63 -26.40,-14.82 -26.49,-15.05 -26.59,-15.29 -26.24,-14.80 -25.89,-14.31 -26.03,-14.43 -26.18,-14.55 -26.30,-14.70 -26.42,-14.85 -26.49,-15.03 -26.57,-15.20 -26.60,-15.39 -26.63,-15.58 -26.62,-15.77 -26.61,-15.96 -26.55,-16.14 -26.49,-16.32 -26.39,-16.48 -26.29,-16.65 -26.15,-16.78 -26.01,-16.91 -25.85,-17.01 -25.68,-17.11 -25.50,-17.16 -25.32,-17.22 -25.13,-17.23 -24.94,-17.23 -24.75,-17.20 -24.56,-17.16 -24.39,-17.08 -24.22,-17.00 -22.89,-17.58 -21.56,-18.15 -18.58,-16.33 -15.60,-14.51 -13.51,-12.95 -11.41,-11.38 -8.64,-9.27 -5.86,-7.15 -4.13,-5.84 -2.39,-4.53 -0.53,-3.02 1.33,-1.52 1.49,-1.34 1.65,-1.15 1.77,-0.94 1.88,-0.72 1.94,-0.49 2.00,-0.25 2.00,-0.01 2.01,0.23 1.95,0.46 1.89,0.70 1.78,0.92 1.67,1.13 1.51,1.32 1.35,1.50 1.15,1.64 0.95,1.78 0.72,1.87 0.49,1.96 0.25,1.99 0.01,2.02 -0.23,1.99 -0.47,1.96 -0.70,1.88 -0.92,1.79 -1.13,1.66 -1.33,1.52 -1.33,1.52 L -1.33,1.52 Z"></path></g><g transform="translate(44.45207956600359 241.92947558770356) rotate(0 12.52802893309223 -9.004520795660028)" stroke="none"><path fill="#1e1e1e" d="M -1.48,-1.06 Q -1.48,-1.06 -0.34,-2.62 0.80,-4.18 2.74,-6.24 4.68,-8.30 6.97,-9.91 9.25,-11.52 13.43,-13.56 17.61,-15.60 19.54,-16.64 21.47,-17.68 22.88,-18.54 24.28,-19.40 24.52,-19.49 24.77,-19.58 25.02,-19.58 25.28,-19.58 25.53,-19.51 25.77,-19.43 25.98,-19.27 26.19,-19.12 26.34,-18.91 26.49,-18.70 26.56,-18.45 26.64,-18.20 26.63,-17.95 26.62,-17.69 26.52,-17.45 26.43,-17.20 26.27,-17.00 26.11,-16.80 25.89,-16.67 25.67,-16.53 25.42,-16.47 25.16,-16.41 24.91,-16.43 24.65,-16.46 24.41,-16.56 24.18,-16.67 23.99,-16.84 23.80,-17.02 23.67,-17.24 23.55,-17.47 23.50,-17.72 23.45,-17.98 23.49,-18.23 23.53,-18.49 23.65,-18.72 23.76,-18.95 23.95,-19.13 24.13,-19.31 24.37,-19.42 24.60,-19.54 24.85,-19.57 25.11,-19.60 25.36,-19.55 25.62,-19.50 25.84,-19.37 26.06,-19.24 26.23,-19.04 26.41,-18.85 26.50,-18.61 26.60,-18.37 26.62,-18.12 26.64,-17.86 26.58,-17.61 26.51,-17.36 26.37,-17.14 26.23,-16.93 26.03,-16.77 25.82,-16.61 25.82,-16.61 25.82,-16.61 24.35,-15.88 22.87,-15.15 20.90,-14.03 18.93,-12.92 15.00,-10.95 11.07,-8.99 9.10,-7.53 7.12,-6.07 5.41,-4.09 3.69,-2.11 2.59,-0.52 1.48,1.06 1.33,1.22 1.18,1.38 1.00,1.50 0.82,1.62 0.61,1.70 0.40,1.77 0.18,1.80 -0.02,1.82 -0.24,1.79 -0.46,1.76 -0.66,1.68 -0.87,1.60 -1.05,1.47 -1.23,1.34 -1.37,1.17 -1.51,1.01 -1.61,0.81 -1.71,0.61 -1.76,0.40 -1.81,0.19 -1.81,-0.02 -1.80,-0.24 -1.75,-0.46 -1.69,-0.67 -1.59,-0.86 -1.48,-1.06 -1.48,-1.06 L -1.48,-1.06 Z"></path></g><g mask="url(#mask-nQQD-9D3OGb70osZcPrXB)" stroke-linecap="round"><g transform="translate(87.28571428571422 199) rotate(0 85 -0.5)"><path d="M1.19 0.41 C29.63 0.56, 141.4 0.4, 169.56 0 M0.36 -0.43 C28.69 -0.51, 140.2 -1.47, 168.38 -1.59" stroke="#1e1e1e" stroke-width="2" fill="none"></path></g><g transform="translate(87.28571428571422 199) rotate(0 85 -0.5)"><path d="M144.94 7.12 C150.64 4.31, 156.6 3.43, 168.38 -1.59 M144.94 7.12 C150.83 5.88, 156.04 3.04, 168.38 -1.59" stroke="#1e1e1e" stroke-width="2" fill="none"></path></g><g transform="translate(87.28571428571422 199) rotate(0 85 -0.5)"><path d="M144.83 -9.98 C150.42 -9.18, 156.4 -6.43, 168.38 -1.59 M144.83 -9.98 C150.84 -7.47, 156.08 -6.57, 168.38 -1.59" stroke="#1e1e1e" stroke-width="2" fill="none"></path></g></g><mask id="mask-nQQD-9D3OGb70osZcPrXB"><rect x="0" y="0" fill="#fff" width="357.2857142857142" height="300"></rect><rect x="142.66071428571422" y="186" fill="#000" width="59.25" height="25" opacity="1"></rect></mask><g transform="translate(142.66071428571422 186) rotate(0 29.582766943783497 12.436546825451614)"><text x="29.625" y="17.52" font-family="Virgil, Segoe UI Emoji" font-size="20px" fill="#1e1e1e" text-anchor="middle" style="white-space: pre;" direction="ltr" dominant-baseline="alphabetic">Action</text></g><g stroke-linecap="round" transform="translate(257.2857142857142 160) rotate(0 16.857142857142833 370.42857142857156)"><path d="M8.43 0 C12.47 0.38, 13.75 -1.16, 25.29 0 M8.43 0 C14.31 0.22, 21.17 -0.32, 25.29 0 M25.29 0 C30.31 1.42, 34.79 1.21, 33.71 8.43 M25.29 0 C33.03 0.87, 32.63 2.97, 33.71 8.43 M33.71 8.43 C33.81 167.4, 34.78 327.39, 33.71 732.43 M33.71 8.43 C34.25 217.49, 34.21 425.97, 33.71 732.43 M33.71 732.43 C32.68 738.1, 31.7 739.2, 25.29 740.86 M33.71 732.43 C35.2 740.28, 28.89 738.76, 25.29 740.86 M25.29 740.86 C20.64 741.35, 14.88 742.34, 8.43 740.86 M25.29 740.86 C18.07 741.5, 12.88 739.97, 8.43 740.86 M8.43 740.86 C2.14 739.88, 1.78 737.56, 0 732.43 M8.43 740.86 C2.35 742.54, -1.98 738.79, 0 732.43 M0 732.43 C-2.29 545.78, -2.1 359.56, 0 8.43 M0 732.43 C1.21 473.5, 0.84 213.52, 0 8.43 M0 8.43 C0.85 3.08, 2.55 -0.42, 8.43 0 M0 8.43 C-0.44 3.96, 3.86 1.66, 8.43 0" stroke="#1e1e1e" stroke-width="2" fill="none"></path></g><g stroke-linecap="round" transform="translate(744.2857142857142 190) rotate(0 18.28571428571422 346.1428571428569)"><path d="M9.14 0 C13.36 -0.4, 17.71 0.47, 27.43 0 M9.14 0 C13.08 0.19, 18.78 -0.7, 27.43 0 M27.43 0 C32.42 -0.04, 36.27 3.69, 36.57 9.14 M27.43 0 C33.81 -1.21, 34.46 4.7, 36.57 9.14 M36.57 9.14 C37.06 190.78, 36.29 371.39, 36.57 683.14 M36.57 9.14 C36.31 266.41, 36.31 522.78, 36.57 683.14 M36.57 683.14 C37.19 687.8, 33.03 691.49, 27.43 692.29 M36.57 683.14 C38.57 690.89, 32.79 691.45, 27.43 692.29 M27.43 692.29 C21.49 692.18, 18.6 692.06, 9.14 692.29 M27.43 692.29 C20.12 692.66, 14.89 692.72, 9.14 692.29 M9.14 692.29 C1.53 693.39, -0.09 688.87, 0 683.14 M9.14 692.29 C1.59 694.43, -2.05 689.83, 0 683.14 M0 683.14 C-1.79 536.18, -2.28 388.5, 0 9.14 M0 683.14 C-0.03 448.3, -0.12 213.74, 0 9.14 M0 9.14 C1.3 2.14, 1.22 -0.2, 9.14 0 M0 9.14 C1.45 3.32, 5.03 -1.09, 9.14 0" stroke="#1e1e1e" stroke-width="2" fill="none"></path></g><g mask="url(#mask-r5y739ZCtvThdBE5Be9v8)" stroke-linecap="round"><g transform="translate(297 226.79159335333725) rotate(0 219.57142857142833 -3.877535436952371)"><path d="M0.32 -0.04 C73.36 -1.49, 365.52 -6.45, 438.62 -7.77 M-0.97 -1.11 C71.83 -2.43, 364.23 -5.3, 437.4 -6.23" stroke="#1e1e1e" stroke-width="2" fill="none"></path></g><g transform="translate(297 226.79159335333725) rotate(0 219.57142857142833 -3.877535436952371)"><path d="M414.01 2.58 C421.61 -1.27, 429.41 -3.7, 437.4 -6.23 M414.01 2.58 C421.29 0.01, 426.92 -3.36, 437.4 -6.23" stroke="#1e1e1e" stroke-width="2" fill="none"></path></g><g transform="translate(297 226.79159335333725) rotate(0 219.57142857142833 -3.877535436952371)"><path d="M413.81 -14.52 C421.61 -12.71, 429.47 -9.48, 437.4 -6.23 M413.81 -14.52 C421.11 -12.23, 426.79 -10.74, 437.4 -6.23" stroke="#1e1e1e" stroke-width="2" fill="none"></path></g></g><mask id="mask-r5y739ZCtvThdBE5Be9v8"><rect x="0" y="0" fill="#fff" width="836.1428571428567" height="334.546664227242"></rect><rect x="389.52142551967063" y="210.414057916385" fill="#000" width="254.10000610351562" height="25" opacity="1"></rect></mask><g transform="translate(389.52142551967063 210.414057916385) rotate(0 126.30241771789724 12.472795797884373)"><text x="127.05000305175781" y="17.52" font-family="Virgil, Segoe UI Emoji" font-size="20px" fill="#1e1e1e" text-anchor="middle" style="white-space: pre;" direction="ltr" dominant-baseline="alphabetic">Request (GET for HTML)</text></g><g stroke-linecap="round" transform="translate(1625.2857142857142 10) rotate(0 190 39.5)"><path d="M19.75 0 C129.88 -0.68, 238.46 -0.12, 360.25 0 M19.75 0 C136.46 0.82, 252.12 1.44, 360.25 0 M360.25 0 C371.86 -0.78, 381.52 8.36, 380 19.75 M360.25 0 C373.52 -1.62, 381.81 4.63, 380 19.75 M380 19.75 C381.76 31.98, 379.09 43.28, 380 59.25 M380 19.75 C379.45 33.49, 380.41 48.8, 380 59.25 M380 59.25 C379.24 73.04, 373.48 79.78, 360.25 79 M380 59.25 C379.5 70.34, 373.84 79.22, 360.25 79 M360.25 79 C226.78 78.57, 91.75 76.69, 19.75 79 M360.25 79 C255.13 79.77, 149.71 79.49, 19.75 79 M19.75 79 C4.79 77.56, -1.92 70.66, 0 59.25 M19.75 79 C4.93 79.08, -2.09 73.94, 0 59.25 M0 59.25 C1.02 49.77, 0.33 40.51, 0 19.75 M0 59.25 C-0.85 49.41, 0.51 39.61, 0 19.75 M0 19.75 C-0.57 5.44, 5.48 -0.38, 19.75 0 M0 19.75 C-0.15 7.83, 8.39 1.95, 19.75 0" stroke="#1e1e1e" stroke-width="2" fill="none"></path></g><g transform="translate(1701.052384512765 37) rotate(0 114.23332977294922 12.5)"><text x="114.23332977294922" y="17.52" font-family="Virgil, Segoe UI Emoji" font-size="20px" fill="#1e1e1e" text-anchor="middle" style="white-space: pre;" direction="ltr" dominant-baseline="alphabetic">Data Source (optional)</text></g><g stroke-linecap="round"><g transform="translate(1827.2857142857142 88) rotate(0 3 415)"><path d="M-0.85 0.15 C0.34 138.61, 5.95 691.98, 7.18 830.21 M0.9 -0.82 C2.04 137.3, 6 689.63, 6.86 828.2" stroke="#1e1e1e" stroke-width="2" fill="none"></path></g></g><mask></mask><g stroke-linecap="round" transform="translate(1238.7142857142858 205) rotate(0 18.28571428571422 293.9999999999999)"><path d="M9.14 0 C17.64 0.96, 23.73 1.2, 27.43 0 M9.14 0 C15.32 -0.78, 18.92 -0.68, 27.43 0 M27.43 0 C34.87 1.88, 35.81 4.01, 36.57 9.14 M27.43 0 C33.22 2.15, 36.29 5, 36.57 9.14 M36.57 9.14 C35.79 138.58, 36.26 268.06, 36.57 578.86 M36.57 9.14 C34.48 202.87, 34.46 396.32, 36.57 578.86 M36.57 578.86 C36.9 586.77, 32.5 588.27, 27.43 588 M36.57 578.86 C37.69 583.01, 35.47 586.49, 27.43 588 M27.43 588 C22.95 586.48, 13.81 587.96, 9.14 588 M27.43 588 C22.96 587.54, 19.9 587.86, 9.14 588 M9.14 588 C4.95 586.53, 0.8 584.15, 0 578.86 M9.14 588 C1.86 587.31, 1.66 585.36, 0 578.86 M0 578.86 C-1.75 433.25, -2.78 286.6, 0 9.14 M0 578.86 C-2.38 354.07, -2.01 130.23, 0 9.14 M0 9.14 C-1.91 4.33, 1.2 0.71, 9.14 0 M0 9.14 C0.31 0.9, 1.25 2.21, 9.14 0" stroke="#1e1e1e" stroke-width="2" fill="none"></path></g><g mask="url(#mask-i-wXIWLn_bUX5oj1lgOqX)" stroke-linecap="round"><g transform="translate(793 237.91335378953136) rotate(0 217.78571428571445 -4.139612469227359)"><path d="M0.51 0.24 C73.04 -0.86, 363.08 -6.35, 435.59 -7.77 M-0.68 -0.68 C71.65 -2.04, 362.07 -8.58, 434.65 -9.62" stroke="#1e1e1e" stroke-width="2" fill="none"></path></g><g transform="translate(793 237.91335378953136) rotate(0 217.78571428571445 -4.139612469227359)"><path d="M411.32 -0.63 C419.68 -3.73, 428.01 -6.78, 434.65 -9.62 M411.32 -0.63 C418.76 -3.38, 425.32 -5.73, 434.65 -9.62" stroke="#1e1e1e" stroke-width="2" fill="none"></path></g><g transform="translate(793 237.91335378953136) rotate(0 217.78571428571445 -4.139612469227359)"><path d="M411 -17.72 C419.3 -15.06, 427.74 -12.34, 434.65 -9.62 M411 -17.72 C418.37 -15.3, 425.04 -12.49, 434.65 -9.62" stroke="#1e1e1e" stroke-width="2" fill="none"></path></g></g><mask id="mask-i-wXIWLn_bUX5oj1lgOqX"><rect x="0" y="0" fill="#fff" width="1328.571428571429" height="346.1925787279861"></rect><rect x="874.4857112339564" y="208.773741320304" fill="#000" width="272.6000061035156" height="50" opacity="1"></rect></mask><g transform="translate(874.4857112339569 208.773741320304) rotate(0 135.9704798289249 24.44842082412447)"><text x="136.3000030517578" y="17.52" font-family="Virgil, Segoe UI Emoji" font-size="20px" fill="#1e1e1e" text-anchor="middle" style="white-space: pre;" direction="ltr" dominant-baseline="alphabetic">Handle Request of Type &amp; </text><text x="136.3000030517578" y="42.519999999999996" font-family="Virgil, Segoe UI Emoji" font-size="20px" fill="#1e1e1e" text-anchor="middle" style="white-space: pre;" direction="ltr" dominant-baseline="alphabetic">Method</text></g><g mask="url(#mask-1EX0HQzIFGO_GIslVV41C)" stroke-linecap="round"><g transform="translate(1289.0793650793644 399.1562894104304) rotate(0 248.5714285714282 0.7811510683719689)"><path d="M1.11 0.38 C84.11 0.4, 415.17 0.91, 497.99 1.08" stroke="#1e1e1e" stroke-width="2.5" fill="none" stroke-dasharray="8 10"></path></g><g transform="translate(1289.0793650793644 399.1562894104304) rotate(0 248.5714285714282 0.7811510683719689)"><path d="M474.48 9.59 C482.08 8.24, 487.68 5.71, 497.99 1.08" stroke="#1e1e1e" stroke-width="2.5" fill="none"></path></g><g transform="translate(1289.0793650793644 399.1562894104304) rotate(0 248.5714285714282 0.7811510683719689)"><path d="M474.51 -7.51 C482.23 -3.74, 487.83 -1.16, 497.99 1.08" stroke="#1e1e1e" stroke-width="2.5" fill="none"></path></g></g><mask id="mask-1EX0HQzIFGO_GIslVV41C"><rect x="0" y="0" fill="#fff" width="1886.2222222222208" height="500.71859154717436"></rect><rect x="1394.5257936507928" y="387.4374404788023" fill="#000" width="286.25" height="25" opacity="1"></rect></mask><g transform="translate(1394.5257936507928 387.4374404788023) rotate(0 144.10215704590053 12.447762678563663)"><text x="143.125" y="17.52" font-family="Virgil, Segoe UI Emoji" font-size="20px" fill="#1e1e1e" text-anchor="middle" style="white-space: pre;" direction="ltr" dominant-baseline="alphabetic">data retrieval / modification</text></g><g mask="url(#mask-wfxYzWorshRx27X1QVt_f)" stroke-linecap="round"><g transform="translate(1287.650793650794 429.07372682860455) rotate(0 74.28571428571354 61.16873957659038)"><path d="M0.07 -0.2 C25.02 7.56, 149.51 26.47, 149.16 47.04 C148.81 67.61, 23.04 110.78, -2.01 123.22" stroke="#1e1e1e" stroke-width="2.5" fill="none" stroke-dasharray="8 10"></path></g><g transform="translate(1287.650793650794 429.07372682860455) rotate(0 74.28571428571354 61.16873957659038)"><path d="M16.43 106.34 C11.5 109.21, 8.97 113.9, -2.01 123.22" stroke="#1e1e1e" stroke-width="2.5" fill="none"></path></g><g transform="translate(1287.650793650794 429.07372682860455) rotate(0 74.28571428571354 61.16873957659038)"><path d="M22.97 122.14 C16.33 121.03, 12.15 121.73, -2.01 123.22" stroke="#1e1e1e" stroke-width="2.5" fill="none"></path></g></g><mask id="mask-wfxYzWorshRx27X1QVt_f"><rect x="0" y="0" fill="#fff" width="1539.0793650793655" height="651.4112059817853"></rect><rect x="1364.8507905990352" y="462.54766693669376" fill="#000" width="145.60000610351562" height="25" opacity="1"></rect></mask><g transform="translate(1364.8507905990355 462.54766693669353) rotate(0 -3.625260590129642 28.035321446343232)"><text x="72.80000305175781" y="17.52" font-family="Virgil, Segoe UI Emoji" font-size="20px" fill="#1e1e1e" text-anchor="middle" style="white-space: pre;" direction="ltr" dominant-baseline="alphabetic">just transform</text></g><g stroke-linecap="round" transform="translate(1789.9999999999995 374.2857142857142) rotate(0 19.000000000000227 121.85714285714289)"><path d="M9.5 0 C12.99 0.19, 20.09 1.69, 28.5 0 M9.5 0 C16.99 -0.65, 24.49 1.04, 28.5 0 M28.5 0 C33.71 1.17, 39.03 2.16, 38 9.5 M28.5 0 C33.5 -0.78, 37.53 1.11, 38 9.5 M38 9.5 C37.07 79.13, 37.54 148.9, 38 234.21 M38 9.5 C38.87 74.44, 39.22 141.45, 38 234.21 M38 234.21 C39.99 239.47, 35.28 242.69, 28.5 243.71 M38 234.21 C38.49 242.02, 34.19 243.51, 28.5 243.71 M28.5 243.71 C25.77 242.89, 20.95 242.57, 9.5 243.71 M28.5 243.71 C24.35 243.88, 20.57 244.56, 9.5 243.71 M9.5 243.71 C2.89 243.44, 0.69 241.06, 0 234.21 M9.5 243.71 C4.86 244.01, 1.17 240.12, 0 234.21 M0 234.21 C0.59 175.31, 1.32 112.17, 0 9.5 M0 234.21 C-1.46 173.93, -2.23 111.99, 0 9.5 M0 9.5 C-1.33 3.56, 2.68 0.38, 9.5 0 M0 9.5 C-1.62 4.63, 2.67 -0.98, 9.5 0" stroke="#1e1e1e" stroke-width="2" fill="none"></path></g><g mask="url(#mask-xyo_ktKgCi1sCgFeeWsh-)" stroke-linecap="round"><g transform="translate(1786.2222222222213 589.2353128717496) rotate(0 -249.99999999999932 -0.8672105990767704)"><path d="M-0.11 -0.56 C-83.28 -0.85, -416.42 -2.16, -499.68 -2.33" stroke="#1e1e1e" stroke-width="2.5" fill="none" stroke-dasharray="8 10"></path></g><g transform="translate(1786.2222222222213 589.2353128717496) rotate(0 -249.99999999999932 -0.8672105990767704)"><path d="M-476.16 -10.81 C-482.87 -8.23, -488.69 -6.12, -499.68 -2.33" stroke="#1e1e1e" stroke-width="2.5" fill="none"></path></g><g transform="translate(1786.2222222222213 589.2353128717496) rotate(0 -249.99999999999932 -0.8672105990767704)"><path d="M-476.22 6.29 C-482.84 4.69, -488.64 2.63, -499.68 -2.33" stroke="#1e1e1e" stroke-width="2.5" fill="none"></path></g></g><mask id="mask-xyo_ktKgCi1sCgFeeWsh-"><rect x="0" y="0" fill="#fff" width="2386.22222222222" height="690.9697340699031"></rect><rect x="1380.0138939751519" y="575.8681022726728" fill="#000" width="312.4166564941406" height="25" opacity="1"></rect></mask><g transform="translate(1380.0138939751519 575.8681022726728) rotate(0 156.31374602168773 11.92139856964343)"><text x="156.2083282470703" y="17.52" font-family="Virgil, Segoe UI Emoji" font-size="20px" fill="#1e1e1e" text-anchor="middle" style="white-space: pre;" direction="ltr" dominant-baseline="alphabetic">completed action / data return</text></g><g mask="url(#mask-_hFIFHpgFIxNXrWCC0gMI)" stroke-linecap="round"><g transform="translate(1277.6507936507937 237.53968253968242) rotate(0 67.85714285714289 48.57142857142867)"><path d="M0.6 0.83 C23.17 7.93, 136.88 27.56, 136.4 43.41 C135.93 59.27, 20.56 87.1, -2.25 95.95" stroke="#1e1e1e" stroke-width="2.5" fill="none" stroke-dasharray="8 10"></path></g><g transform="translate(1277.6507936507937 237.53968253968242) rotate(0 67.85714285714289 48.57142857142867)"><path d="M17.7 80.88 C11.63 85.47, 3.6 91.05, -2.25 95.95" stroke="#1e1e1e" stroke-width="2.5" fill="none"></path></g><g transform="translate(1277.6507936507937 237.53968253968242) rotate(0 67.85714285714289 48.57142857142867)"><path d="M22.72 97.23 C14.63 95.64, 4.7 95.02, -2.25 95.95" stroke="#1e1e1e" stroke-width="2.5" fill="none"></path></g></g><mask id="mask-_hFIFHpgFIxNXrWCC0gMI"><rect x="0" y="0" fill="#fff" width="1516.2222222222217" height="434.68253968253975"></rect><rect x="1347.3436538454084" y="267.89682539682553" fill="#000" width="134.89999389648438" height="25" opacity="1"></rect></mask><g transform="translate(1347.3436538454084 267.89682539682553) rotate(0 -2.614706453186045 18.03639236326717)"><text x="67.44999694824219" y="17.52" font-family="Virgil, Segoe UI Emoji" font-size="20px" fill="#1e1e1e" text-anchor="middle" style="white-space: pre;" direction="ltr" dominant-baseline="alphabetic">pre transform</text></g><g mask="url(#mask-z2k4NZcnHPhRUkj5ubvWG)" stroke-linecap="round"><g transform="translate(1281.936507936508 651.8253968253966) rotate(0 67.85714285714289 48.57142857142867)"><path d="M-1.05 0.23 C21.94 7.7, 137.59 27.46, 137.43 43.7 C137.26 59.94, 20.95 88.73, -2.03 97.66" stroke="#1e1e1e" stroke-width="2.5" fill="none" stroke-dasharray="8 10"></path></g><g transform="translate(1281.936507936508 651.8253968253966) rotate(0 67.85714285714289 48.57142857142867)"><path d="M17.86 82.51 C12.92 86.74, 8.8 89.19, -2.03 97.66" stroke="#1e1e1e" stroke-width="2.5" fill="none"></path></g><g transform="translate(1281.936507936508 651.8253968253966) rotate(0 67.85714285714289 48.57142857142867)"><path d="M22.94 98.84 C16.85 98.79, 11.4 97, -2.03 97.66" stroke="#1e1e1e" stroke-width="2.5" fill="none"></path></g></g><mask id="mask-z2k4NZcnHPhRUkj5ubvWG"><rect x="0" y="0" fill="#fff" width="1520.507936507936" height="848.968253968254"></rect><rect x="1344.771030728779" y="682.1825396825398" fill="#000" width="148.61666870117188" height="25" opacity="1"></rect></mask><g transform="translate(1344.771030728779 682.1825396825398) rotate(0 4.862029162566159 18.585104780750385)"><text x="74.30833435058594" y="17.52" font-family="Virgil, Segoe UI Emoji" font-size="20px" fill="#1e1e1e" text-anchor="middle" style="white-space: pre;" direction="ltr" dominant-baseline="alphabetic">post transform</text></g><g mask="url(#mask-LhGvFSVHIuUEq94k-Fr8e)" stroke-linecap="round"><g transform="translate(1237.650793650794 783.2539682539682) rotate(0 -224.9999999999999 2.8571428571428896)"><path d="M0.14 0.61 C-74.93 1.55, -374.25 3.75, -449.23 4.57 M-1.25 -0.12 C-76.51 1.02, -374.92 4.36, -449.77 5.51" stroke="#1e1e1e" stroke-width="2" fill="none"></path></g><g transform="translate(1237.650793650794 783.2539682539682) rotate(0 -224.9999999999999 2.8571428571428896)"><path d="M-426.39 -3.35 C-434.77 1.5, -447.01 4.21, -449.77 5.51 M-426.39 -3.35 C-432.59 -0.29, -440 2.12, -449.77 5.51" stroke="#1e1e1e" stroke-width="2" fill="none"></path></g><g transform="translate(1237.650793650794 783.2539682539682) rotate(0 -224.9999999999999 2.8571428571428896)"><path d="M-426.17 13.75 C-434.49 11.78, -446.81 7.68, -449.77 5.51 M-426.17 13.75 C-432.28 11.89, -439.75 9.39, -449.77 5.51" stroke="#1e1e1e" stroke-width="2" fill="none"></path></g></g><mask id="mask-LhGvFSVHIuUEq94k-Fr8e"><rect x="0" y="0" fill="#fff" width="1787.6507936507937" height="888.968253968254"></rect><rect x="878.2091280013799" y="773.6111111111113" fill="#000" width="268.8833312988281" height="25" opacity="1"></rect></mask><g transform="translate(878.2091280013801 773.6111111111111) rotate(0 134.6273142016538 12.337967522321264)"><text x="134.44166564941406" y="17.52" font-family="Virgil, Segoe UI Emoji" font-size="20px" fill="#1e1e1e" text-anchor="middle" style="white-space: pre;" direction="ltr" dominant-baseline="alphabetic">Returned Status + (Data)</text></g><g mask="url(#mask-UEVhr2TRYMxZ2D1pjlxoG)" stroke-linecap="round"><g transform="translate(739.0793650793653 824.6825396825398) rotate(0 -220.71428571428572 2.857142857142776)"><path d="M-1.01 0.81 C-74.74 1.8, -368.19 5.33, -441.73 6.27 M0.66 0.19 C-73.32 0.79, -369.43 3.72, -442.84 4.44" stroke="#1e1e1e" stroke-width="2" fill="none"></path></g><g transform="translate(739.0793650793653 824.6825396825398) rotate(0 -220.71428571428572 2.857142857142776)"><path d="M-419.43 -4.34 C-426.35 -1.93, -435.05 0.29, -442.84 4.44 M-419.43 -4.34 C-427.34 -0.28, -436.59 1.39, -442.84 4.44" stroke="#1e1e1e" stroke-width="2" fill="none"></path></g><g transform="translate(739.0793650793653 824.6825396825398) rotate(0 -220.71428571428572 2.857142857142776)"><path d="M-419.27 12.76 C-426.29 9.11, -435.05 5.28, -442.84 4.44 M-419.27 12.76 C-427.1 10.61, -436.41 6.06, -442.84 4.44" stroke="#1e1e1e" stroke-width="2" fill="none"></path></g></g><mask id="mask-UEVhr2TRYMxZ2D1pjlxoG"><rect x="0" y="0" fill="#fff" width="1280.5079365079368" height="930.3968253968253"></rect><rect x="384.29841371566545" y="815.0396825396824" fill="#000" width="268.1333312988281" height="25" opacity="1"></rect></mask><g transform="translate(384.29841371566545 815.0396825396824) rotate(0 133.68826512356293 12.872850922397447)"><text x="134.06666564941406" y="17.52" font-family="Virgil, Segoe UI Emoji" font-size="20px" fill="#1e1e1e" text-anchor="middle" style="white-space: pre;" direction="ltr" dominant-baseline="alphabetic">Rendered HTML (this case)</text></g><g mask="url(#mask-SmxvAXYKLCvqTyOYij4Y8)" stroke-linecap="round"><g transform="translate(249.0793650793653 828.9682539682537) rotate(0 -107.85714285714289 0)"><path d="M1.03 -0.51 C-34.68 -0.67, -179.2 -0.58, -215.29 -0.46 M0.12 -1.82 C-35.63 -1.86, -179.97 0.26, -216.02 0.83" stroke="#1e1e1e" stroke-width="2" fill="none"></path></g><g transform="translate(249.0793650793653 828.9682539682537) rotate(0 -107.85714285714289 0)"><path d="M-192.66 -8.07 C-198.52 -5.24, -203.5 -3.67, -216.02 0.83 M-192.66 -8.07 C-200.6 -4.26, -206.86 -2.58, -216.02 0.83" stroke="#1e1e1e" stroke-width="2" fill="none"></path></g><g transform="translate(249.0793650793653 828.9682539682537) rotate(0 -107.85714285714289 0)"><path d="M-192.4 9.03 C-198.39 8.16, -203.43 6.03, -216.02 0.83 M-192.4 9.03 C-200.41 7.45, -206.75 3.72, -216.02 0.83" stroke="#1e1e1e" stroke-width="2" fill="none"></path></g></g><mask id="mask-SmxvAXYKLCvqTyOYij4Y8"><rect x="0" y="0" fill="#fff" width="564.7936507936511" height="928.9682539682537"></rect><rect x="106.8722237481013" y="816.4682539682537" fill="#000" width="68.69999694824219" height="25" opacity="1"></rect></mask><g transform="translate(106.8722237481013 816.4682539682537) rotate(0 34.713896704488434 12.005298848006646)"><text x="34.349998474121094" y="17.52" font-family="Virgil, Segoe UI Emoji" font-size="20px" fill="#1e1e1e" text-anchor="middle" style="white-space: pre;" direction="ltr" dominant-baseline="alphabetic">Display</text></g><g transform="translate(1410.5079365079364 221.82539682539687) rotate(0 21.42857142857156 -8.571428571428555)" stroke="none"><path fill="#1e1e1e" d="M -2.49,-3.48 Q -2.49,-3.48 0.41,-5.50 3.31,-7.51 7.04,-10.21 10.77,-12.91 14.16,-15.05 17.54,-17.18 20.49,-19.25 23.44,-21.31 27.28,-23.75 31.13,-26.18 32.80,-28.03 34.48,-29.88 37.38,-31.86 40.29,-33.84 42.96,-30.90 45.64,-27.95 45.35,-25.82 45.06,-23.69 43.95,-19.31 42.84,-14.94 42.13,-11.96 41.42,-8.97 41.23,-6.74 41.04,-4.52 40.54,-0.59 40.05,3.33 40.01,5.94 39.96,8.56 40.08,12.15 40.20,15.74 40.04,16.69 39.88,17.63 39.42,18.47 38.97,19.32 38.27,19.97 37.57,20.62 36.70,21.02 35.83,21.42 34.88,21.52 33.93,21.62 32.99,21.40 32.06,21.19 31.24,20.70 30.43,20.20 29.81,19.46 29.19,18.73 28.84,17.84 28.50,16.95 28.45,15.99 28.40,15.04 28.66,14.12 28.92,13.19 29.47,12.41 30.01,11.62 30.77,11.04 31.54,10.47 32.45,10.17 33.36,9.87 34.31,9.87 35.27,9.88 36.18,10.19 37.08,10.50 37.84,11.08 38.60,11.66 39.13,12.46 39.66,13.26 39.92,14.18 40.17,15.10 40.11,16.06 40.05,17.01 39.69,17.90 39.33,18.79 38.71,19.51 38.09,20.24 37.26,20.73 36.44,21.22 35.50,21.42 34.57,21.62 33.62,21.51 32.66,21.40 31.80,20.99 30.93,20.59 30.24,19.92 29.55,19.26 29.11,18.41 28.66,17.57 28.51,16.62 28.36,15.67 28.36,15.68 28.36,15.68 28.50,12.75 28.64,9.83 28.91,7.50 29.18,5.18 29.53,2.81 29.88,0.45 30.56,-2.61 31.25,-5.67 31.64,-8.41 32.03,-11.15 32.70,-14.05 33.36,-16.95 34.09,-20.42 34.83,-23.89 37.21,-24.19 39.59,-24.49 37.27,-22.54 34.94,-20.58 31.30,-17.94 27.66,-15.30 24.59,-13.14 21.53,-10.99 18.50,-8.99 15.46,-7.00 11.82,-3.84 8.18,-0.69 5.33,1.39 2.49,3.48 2.03,3.73 1.58,3.98 1.08,4.11 0.58,4.24 0.06,4.25 -0.44,4.26 -0.95,4.14 -1.45,4.03 -1.91,3.79 -2.37,3.56 -2.76,3.22 -3.16,2.89 -3.46,2.47 -3.76,2.05 -3.95,1.57 -4.14,1.09 -4.21,0.58 -4.28,0.06 -4.23,-0.44 -4.17,-0.95 -4.00,-1.44 -3.82,-1.93 -3.53,-2.36 -3.25,-2.78 -2.87,-3.13 -2.49,-3.48 -2.49,-3.48 L -2.49,-3.48 Z"></path></g><g transform="translate(1464.7936507936506 181.82539682539687) rotate(0 -34.28571428571399 32.85714285714289)" stroke="none"><path fill="#1e1e1e" d="M -2.04,3.27 Q -2.04,3.27 -5.29,1.16 -8.54,-0.95 -11.37,-3.14 -14.21,-5.33 -16.55,-6.91 -18.89,-8.49 -21.65,-9.86 -24.40,-11.24 -27.60,-11.79 -30.80,-12.35 -34.47,-12.31 -38.14,-12.27 -41.57,-11.49 -45.00,-10.71 -48.27,-8.95 -51.53,-7.20 -53.53,-5.24 -55.54,-3.27 -58.45,0.54 -61.36,4.36 -63.45,7.96 -65.54,11.56 -66.79,15.72 -68.04,19.89 -69.00,23.79 -69.96,27.69 -70.13,30.12 -70.31,32.56 -70.93,36.46 -71.55,40.37 -71.69,43.57 -71.83,46.78 -71.55,50.38 -71.28,53.99 -70.61,56.18 -69.94,58.37 -68.60,61.05 -67.26,63.73 -65.60,65.37 -63.95,67.01 -61.08,69.42 -58.21,71.83 -54.76,73.67 -51.30,75.51 -47.50,76.73 -43.71,77.95 -41.26,78.25 -38.81,78.55 -33.20,78.46 -27.59,78.37 -22.90,77.20 -18.22,76.03 -15.44,74.97 -12.66,73.91 -10.75,72.07 -8.85,70.22 -6.23,67.79 -3.61,65.35 -1.41,62.51 0.79,59.67 1.45,57.15 2.10,54.64 2.59,50.14 3.08,45.65 2.18,41.56 1.27,37.48 0.05,34.10 -1.17,30.73 -5.48,25.51 -9.80,20.29 -12.21,17.54 -14.63,14.80 -17.04,13.07 -19.45,11.33 -19.83,10.89 -20.22,10.45 -20.44,9.91 -20.66,9.37 -20.69,8.79 -20.73,8.20 -20.58,7.64 -20.42,7.08 -20.10,6.59 -19.78,6.10 -19.31,5.75 -18.85,5.39 -18.30,5.20 -17.75,5.01 -17.16,5.01 -16.58,5.00 -16.03,5.18 -15.47,5.37 -15.00,5.72 -14.54,6.07 -14.20,6.55 -13.87,7.03 -13.71,7.59 -13.55,8.15 -13.58,8.73 -13.61,9.32 -13.82,9.86 -14.03,10.40 -14.41,10.85 -14.78,11.30 -15.28,11.60 -15.78,11.91 -16.35,12.04 -16.92,12.17 -17.50,12.11 -18.08,12.05 -18.61,11.81 -19.14,11.57 -19.57,11.17 -19.99,10.77 -20.27,10.26 -20.55,9.74 -20.65,9.17 -20.75,8.59 -20.66,8.02 -20.57,7.44 -20.30,6.92 -20.03,6.40 -19.61,6.00 -19.18,5.59 -18.66,5.35 -18.13,5.10 -17.55,5.03 -16.97,4.96 -16.40,5.08 -15.83,5.20 -15.32,5.50 -14.82,5.80 -14.82,5.80 -14.82,5.80 -12.28,8.21 -9.74,10.62 -7.38,13.49 -5.03,16.35 -0.05,22.39 4.91,28.43 6.23,32.23 7.54,36.03 8.73,41.09 9.92,46.14 9.55,51.57 9.18,56.99 7.82,60.42 6.45,63.84 3.90,67.25 1.34,70.65 -1.43,73.25 -4.21,75.84 -7.28,78.11 -10.36,80.37 -13.49,81.25 -16.62,82.12 -21.98,83.58 -27.34,85.04 -33.77,85.33 -40.19,85.62 -42.87,84.88 -45.55,84.14 -49.95,82.92 -54.35,81.70 -58.58,79.73 -62.82,77.76 -66.46,75.06 -70.09,72.37 -72.15,69.73 -74.20,67.09 -75.78,63.56 -77.36,60.04 -77.77,57.29 -78.18,54.54 -78.52,50.40 -78.86,46.26 -78.50,42.83 -78.14,39.40 -77.59,35.42 -77.04,31.45 -76.39,28.87 -75.74,26.28 -74.76,22.25 -73.79,18.22 -72.41,13.38 -71.03,8.55 -68.87,4.49 -66.72,0.43 -63.50,-4.08 -60.28,-8.61 -57.53,-10.82 -54.78,-13.03 -50.73,-15.31 -46.67,-17.59 -42.54,-18.56 -38.41,-19.54 -33.95,-19.76 -29.50,-19.98 -25.17,-19.22 -20.85,-18.46 -17.50,-16.73 -14.16,-15.00 -11.80,-13.14 -9.44,-11.29 -7.02,-9.27 -4.59,-7.26 -1.27,-5.26 2.04,-3.27 2.41,-2.98 2.77,-2.69 3.05,-2.32 3.33,-1.94 3.52,-1.52 3.70,-1.09 3.78,-0.63 3.85,-0.17 3.82,0.28 3.78,0.75 3.64,1.19 3.49,1.63 3.25,2.03 3.00,2.42 2.67,2.75 2.33,3.07 1.93,3.31 1.53,3.54 1.08,3.67 0.63,3.81 0.17,3.83 -0.29,3.85 -0.74,3.76 -1.20,3.67 -1.62,3.47 -2.04,3.27 -2.04,3.27 L -2.04,3.27 Z"></path></g><g transform="translate(1609.0793650793653 478.968253968254) rotate(0 24.999999999999773 7.142857142857224)" stroke="none"><path fill="#1e1e1e" d="M -4.76,-1.90 Q -4.76,-1.90 -3.97,-4.02 -3.17,-6.13 0.25,-10.43 3.69,-14.72 5.62,-16.52 7.56,-18.31 9.72,-19.88 11.89,-21.45 15.53,-22.01 19.16,-22.56 21.65,-22.20 24.14,-21.83 26.72,-21.19 29.31,-20.55 31.74,-19.08 34.17,-17.61 36.41,-15.06 38.66,-12.51 40.19,-9.89 41.73,-7.26 42.53,-4.43 43.33,-1.60 43.61,0.68 43.89,2.96 41.92,7.43 39.96,11.90 38.28,14.41 36.60,16.92 33.02,20.38 29.44,23.84 26.19,26.52 22.94,29.21 21.38,30.83 19.81,32.44 18.78,34.08 17.75,35.71 17.27,36.06 16.80,36.42 16.26,36.64 15.72,36.87 15.14,36.97 14.56,37.06 13.97,37.01 13.38,36.96 12.83,36.77 12.27,36.58 11.77,36.27 11.28,35.95 10.87,35.53 10.47,35.10 10.17,34.59 9.88,34.08 9.72,33.51 9.56,32.95 9.54,32.36 9.51,31.77 9.63,31.20 9.75,30.62 10.01,30.09 10.26,29.56 10.63,29.10 11.01,28.65 13.45,27.75 15.90,26.85 20.45,25.67 24.99,24.49 27.19,23.81 29.39,23.12 32.19,22.47 34.99,21.82 38.88,21.63 42.78,21.43 45.12,21.34 47.46,21.25 50.09,22.21 52.73,23.17 53.52,23.74 54.31,24.32 54.87,25.12 55.44,25.92 55.72,26.86 56.00,27.80 55.96,28.78 55.93,29.76 55.58,30.67 55.24,31.59 54.62,32.35 54.00,33.10 53.17,33.62 52.34,34.15 51.39,34.37 50.44,34.60 49.46,34.51 48.49,34.43 47.59,34.03 46.69,33.64 45.97,32.98 45.25,32.32 44.77,31.46 44.30,30.61 44.12,29.64 43.94,28.68 44.08,27.71 44.22,26.74 44.67,25.87 45.11,25.00 45.81,24.31 46.51,23.62 47.39,23.19 48.27,22.77 49.24,22.64 50.21,22.52 51.17,22.71 52.13,22.90 52.98,23.39 53.83,23.88 54.47,24.62 55.12,25.35 55.50,26.25 55.88,27.15 55.95,28.13 56.02,29.11 55.78,30.06 55.53,31.00 55.00,31.82 54.47,32.65 53.70,33.25 52.93,33.86 52.01,34.19 51.09,34.52 50.11,34.54 49.13,34.56 48.19,34.26 47.26,33.97 47.26,33.97 47.26,33.97 46.31,33.49 45.36,33.01 42.25,32.94 39.15,32.87 35.73,33.01 32.31,33.15 29.87,33.82 27.43,34.49 24.85,35.11 22.26,35.72 20.00,35.72 17.75,35.71 17.27,36.06 16.80,36.42 16.26,36.64 15.72,36.87 15.14,36.97 14.56,37.06 13.97,37.01 13.39,36.96 12.83,36.77 12.27,36.58 11.77,36.27 11.28,35.95 10.87,35.53 10.47,35.10 10.17,34.59 9.88,34.08 9.72,33.51 9.56,32.95 9.54,32.36 9.51,31.77 9.63,31.20 9.75,30.62 10.01,30.09 10.26,29.56 10.63,29.10 11.01,28.65 12.34,27.24 13.68,25.83 15.45,24.35 17.22,22.88 19.89,20.22 22.56,17.56 25.16,14.23 27.76,10.90 29.05,9.06 30.33,7.21 31.31,4.11 32.30,1.01 31.23,-2.04 30.17,-5.10 28.28,-7.39 26.39,-9.68 22.99,-10.54 19.59,-11.40 17.36,-10.88 15.13,-10.36 13.08,-8.36 11.04,-6.36 8.75,-4.21 6.46,-2.07 5.61,-0.08 4.76,1.90 4.46,2.44 4.17,2.99 3.75,3.44 3.33,3.90 2.81,4.24 2.30,4.58 1.72,4.79 1.13,5.00 0.52,5.06 -0.09,5.13 -0.70,5.04 -1.31,4.96 -1.89,4.73 -2.46,4.50 -2.96,4.14 -3.47,3.77 -3.87,3.30 -4.27,2.83 -4.55,2.28 -4.83,1.73 -4.96,1.12 -5.10,0.52 -5.09,-0.09 -5.08,-0.71 -4.92,-1.30 -4.76,-1.90 -4.76,-1.90 L -4.76,-1.90 Z"></path></g><g transform="translate(1663.3650793650795 441.82539682539687) rotate(0 -35 42.857142857142776)" stroke="none"><path fill="#1e1e1e" d="M -2.90,3.39 Q -2.90,3.39 -5.70,0.83 -8.50,-1.71 -10.88,-3.48 -13.27,-5.25 -15.14,-6.43 -17.00,-7.61 -19.70,-7.75 -22.39,-7.88 -24.61,-7.88 -26.83,-7.88 -29.38,-7.88 -31.92,-7.87 -34.74,-7.55 -37.55,-7.22 -40.92,-6.17 -44.29,-5.11 -47.67,-4.10 -51.05,-3.09 -54.41,-1.94 -57.78,-0.80 -60.94,1.60 -64.11,4.01 -65.94,6.08 -67.77,8.15 -68.74,10.05 -69.72,11.94 -71.08,14.22 -72.45,16.50 -73.47,19.00 -74.48,21.51 -75.57,24.91 -76.67,28.31 -77.45,31.43 -78.23,34.56 -78.50,38.67 -78.77,42.77 -78.76,46.78 -78.75,50.80 -78.63,53.61 -78.52,56.41 -77.58,58.80 -76.64,61.19 -75.74,63.34 -74.83,65.49 -72.92,69.05 -71.01,72.61 -68.51,75.10 -66.01,77.58 -64.19,78.94 -62.37,80.31 -58.48,82.37 -54.60,84.44 -51.04,86.52 -47.48,88.60 -44.56,89.75 -41.64,90.91 -38.46,91.84 -35.29,92.78 -32.86,93.06 -30.44,93.34 -27.06,93.59 -23.69,93.84 -20.98,93.85 -18.26,93.87 -15.81,93.47 -13.36,93.07 -10.78,92.82 -8.21,92.57 -6.18,91.56 -4.14,90.55 -2.26,89.25 -0.37,87.95 0.92,86.26 2.22,84.57 3.12,81.38 4.02,78.19 5.11,75.41 6.20,72.62 6.98,67.82 7.76,63.02 7.97,60.88 8.17,58.74 8.37,55.85 8.57,52.95 8.36,49.97 8.16,46.99 7.37,44.40 6.59,41.80 5.49,39.04 4.39,36.27 3.42,34.29 2.45,32.30 1.27,29.83 0.08,27.37 -1.91,24.34 -3.91,21.31 -5.32,19.33 -6.74,17.35 -8.79,15.17 -10.85,12.99 -11.92,12.53 -13.00,12.06 -13.71,11.46 -14.41,10.85 -14.89,10.04 -15.37,9.24 -15.56,8.33 -15.76,7.42 -15.65,6.49 -15.54,5.56 -15.15,4.72 -14.75,3.87 -14.11,3.20 -13.46,2.53 -12.63,2.09 -11.81,1.66 -10.88,1.51 -9.96,1.37 -9.04,1.53 -8.12,1.68 -7.30,2.12 -6.48,2.57 -5.84,3.25 -5.20,3.93 -4.81,4.78 -4.43,5.63 -4.33,6.56 -4.24,7.48 -4.44,8.39 -4.65,9.30 -5.13,10.10 -5.62,10.90 -6.34,11.50 -7.05,12.10 -7.92,12.44 -8.79,12.78 -9.72,12.82 -10.65,12.87 -11.55,12.61 -12.45,12.36 -13.22,11.83 -13.99,11.30 -14.55,10.56 -15.11,9.81 -15.40,8.92 -15.69,8.04 -15.69,7.10 -15.68,6.17 -15.38,5.29 -15.08,4.41 -14.51,3.67 -13.94,2.93 -13.16,2.41 -12.39,1.89 -11.49,1.64 -10.58,1.40 -9.65,1.46 -8.72,1.51 -7.86,1.86 -6.99,2.21 -6.99,2.21 -6.99,2.21 -4.81,3.73 -2.63,5.25 -0.25,8.22 2.12,11.18 3.38,13.05 4.65,14.91 6.06,16.98 7.47,19.05 8.35,21.00 9.23,22.95 10.48,25.53 11.73,28.11 12.64,30.27 13.54,32.43 14.92,35.57 16.30,38.70 17.47,42.25 18.64,45.80 19.17,49.54 19.71,53.29 19.71,56.55 19.72,59.82 19.47,62.51 19.22,65.21 18.82,67.77 18.41,70.33 17.30,75.31 16.20,80.30 14.79,83.60 13.38,86.90 12.41,89.14 11.45,91.38 9.82,93.36 8.20,95.33 5.76,96.99 3.32,98.64 0.21,99.96 -2.88,101.27 -5.21,101.73 -7.54,102.19 -9.82,102.26 -12.11,102.33 -15.29,102.70 -18.47,103.06 -21.28,102.94 -24.10,102.81 -27.93,102.73 -31.77,102.66 -34.70,102.17 -37.64,101.68 -41.28,100.80 -44.92,99.93 -48.38,98.76 -51.84,97.59 -55.56,96.13 -59.27,94.67 -62.41,93.33 -65.54,92.00 -67.39,90.80 -69.24,89.61 -71.41,88.03 -73.58,86.44 -75.77,84.52 -77.97,82.59 -79.51,80.57 -81.06,78.55 -83.27,74.37 -85.47,70.19 -87.29,65.56 -89.10,60.93 -89.57,58.72 -90.03,56.50 -89.89,53.60 -89.75,50.70 -89.58,46.43 -89.42,42.16 -89.23,39.78 -89.03,37.40 -88.66,34.96 -88.28,32.52 -87.68,28.85 -87.08,25.18 -86.27,22.66 -85.46,20.14 -84.17,17.54 -82.89,14.94 -81.75,13.14 -80.62,11.34 -79.24,9.26 -77.86,7.18 -76.23,4.63 -74.60,2.07 -72.24,-0.52 -69.88,-3.12 -67.42,-4.94 -64.95,-6.76 -62.78,-7.68 -60.62,-8.60 -57.10,-9.95 -53.58,-11.30 -50.44,-12.30 -47.30,-13.30 -43.05,-15.04 -38.80,-16.79 -35.29,-17.25 -31.79,-17.72 -29.11,-17.63 -26.44,-17.55 -24.12,-17.36 -21.80,-17.18 -17.67,-16.88 -13.54,-16.58 -10.78,-14.33 -8.03,-12.07 -5.51,-10.10 -2.99,-8.13 -0.04,-5.76 2.90,-3.39 3.27,-2.99 3.63,-2.59 3.89,-2.12 4.15,-1.65 4.29,-1.13 4.42,-0.61 4.43,-0.07 4.44,0.46 4.32,0.99 4.20,1.51 3.96,1.99 3.72,2.47 3.36,2.88 3.01,3.29 2.58,3.61 2.14,3.92 1.64,4.12 1.14,4.32 0.60,4.39 0.07,4.47 -0.46,4.41 -0.99,4.35 -1.50,4.17 -2.01,3.99 -2.46,3.69 -2.91,3.39 -2.91,3.39 L -2.90,3.39 Z"></path></g><g transform="translate(1480.5079365079364 760.3968253968253) rotate(0 19.285714285714448 22.142857142857224)" stroke="none"><path fill="#1e1e1e" d="M -2.81,-3.51 Q -2.81,-3.51 -0.73,-5.25 1.34,-6.98 6.37,-8.23 11.39,-9.48 16.53,-9.41 21.67,-9.34 26.08,-8.39 30.48,-7.45 33.17,-6.27 35.85,-5.09 38.91,-1.28 41.97,2.52 41.00,6.45 40.03,10.38 38.64,12.85 37.26,15.32 34.72,17.84 32.18,20.36 28.31,22.60 24.44,24.83 20.82,26.82 17.20,28.81 15.81,29.44 14.42,30.06 13.95,30.28 13.48,30.49 12.97,30.59 12.47,30.68 11.95,30.65 11.43,30.62 10.94,30.47 10.45,30.32 10.00,30.06 9.56,29.79 9.19,29.43 8.83,29.06 8.56,28.62 8.29,28.18 8.13,27.69 7.98,27.20 7.94,26.68 7.91,26.16 8.00,25.66 8.09,25.15 8.30,24.68 8.51,24.20 8.83,23.80 9.15,23.39 9.55,23.07 9.96,22.75 13.14,22.01 16.32,21.26 21.92,21.49 27.51,21.72 32.89,22.32 38.26,22.91 41.45,23.57 44.64,24.22 46.78,26.22 48.93,28.22 49.88,30.80 50.83,33.39 50.69,36.04 50.55,38.69 48.36,41.70 46.18,44.72 44.09,46.88 42.01,49.03 37.00,50.98 31.98,52.92 26.85,53.55 21.71,54.18 15.85,54.34 9.99,54.50 6.71,54.72 3.44,54.94 -0.13,54.19 -3.71,53.43 -6.07,52.16 -8.43,50.89 -9.76,50.16 -11.09,49.43 -11.62,48.93 -12.15,48.43 -12.49,47.79 -12.83,47.15 -12.95,46.43 -13.07,45.71 -12.95,44.99 -12.83,44.27 -12.49,43.63 -12.15,42.99 -11.62,42.49 -11.09,41.98 -10.43,41.68 -9.77,41.37 -9.05,41.29 -8.32,41.22 -7.61,41.37 -6.90,41.53 -6.28,41.90 -5.65,42.28 -5.18,42.83 -4.71,43.39 -4.44,44.07 -4.17,44.74 -4.13,45.47 -4.09,46.20 -4.29,46.90 -4.48,47.60 -4.89,48.20 -5.30,48.80 -5.88,49.24 -6.46,49.69 -7.15,49.92 -7.84,50.15 -8.57,50.15 -9.30,50.15 -9.98,49.92 -10.67,49.68 -11.25,49.24 -11.83,48.80 -12.24,48.20 -12.65,47.60 -12.85,46.90 -13.04,46.20 -13.00,45.47 -12.96,44.74 -12.69,44.06 -12.42,43.39 -11.95,42.83 -11.48,42.28 -10.85,41.90 -10.23,41.53 -9.52,41.37 -8.81,41.22 -8.09,41.29 -7.36,41.37 -6.70,41.68 -6.04,41.99 -6.04,41.99 -6.04,41.98 -3.85,43.97 -1.65,45.96 0.79,46.75 3.23,47.53 6.42,47.49 9.60,47.44 15.07,46.99 20.53,46.54 24.65,45.73 28.76,44.93 32.00,43.49 35.23,42.05 38.36,39.29 41.49,36.54 41.67,33.86 41.85,31.19 39.77,30.68 37.69,30.17 32.61,29.95 27.53,29.74 20.98,29.90 14.42,30.06 13.95,30.28 13.48,30.49 12.97,30.59 12.47,30.68 11.95,30.65 11.43,30.62 10.94,30.47 10.45,30.32 10.00,30.06 9.56,29.79 9.19,29.43 8.83,29.06 8.56,28.62 8.29,28.18 8.13,27.69 7.98,27.20 7.94,26.68 7.91,26.16 8.00,25.66 8.09,25.15 8.30,24.68 8.51,24.20 8.83,23.80 9.15,23.39 9.55,23.07 9.96,22.75 11.54,22.38 13.11,22.02 16.48,19.75 19.85,17.48 22.76,15.48 25.66,13.49 28.57,10.36 31.48,7.23 32.71,5.18 33.94,3.13 31.49,1.26 29.03,-0.61 25.38,-1.26 21.74,-1.90 17.59,-1.71 13.45,-1.52 10.15,-0.55 6.86,0.41 4.83,1.96 2.81,3.51 2.35,3.80 1.89,4.08 1.37,4.25 0.85,4.42 0.31,4.46 -0.22,4.49 -0.76,4.40 -1.29,4.31 -1.79,4.09 -2.29,3.87 -2.72,3.54 -3.15,3.21 -3.49,2.79 -3.83,2.36 -4.05,1.87 -4.28,1.38 -4.39,0.85 -4.49,0.31 -4.46,-0.22 -4.43,-0.76 -4.28,-1.28 -4.12,-1.80 -3.85,-2.27 -3.57,-2.74 -3.19,-3.13 -2.81,-3.51 -2.81,-3.51 L -2.81,-3.51 Z"></path></g><g transform="translate(1520.5079365079364 731.8253968253969) rotate(0 -28.57142857142844 54.28571428571422)" stroke="none"><path fill="#1e1e1e" d="M 0,4.15 Q 0,4.15 -4.51,3.94 -9.03,3.74 -11.77,3.87 -14.51,4.00 -16.92,4.13 -19.32,4.27 -21.97,3.94 -24.61,3.61 -28.14,3.33 -31.67,3.06 -35.29,2.91 -38.92,2.77 -42.73,3.00 -46.54,3.23 -49.52,3.49 -52.50,3.74 -55.22,4.90 -57.94,6.05 -61.24,7.67 -64.55,9.28 -66.87,11.42 -69.20,13.55 -70.46,15.30 -71.71,17.05 -73.71,20.53 -75.70,24.01 -77.48,27.04 -79.25,30.08 -81.40,33.50 -83.55,36.92 -85.20,39.97 -86.86,43.01 -87.83,45.16 -88.81,47.31 -89.04,49.65 -89.27,52.00 -89.05,54.81 -88.84,57.62 -87.74,60.51 -86.63,63.39 -84.32,67.99 -82.00,72.58 -79.85,75.70 -77.70,78.81 -75.53,81.28 -73.35,83.74 -71.16,85.97 -68.98,88.20 -66.92,89.77 -64.86,91.35 -62.58,93.36 -60.31,95.38 -58.01,96.79 -55.71,98.21 -53.09,99.65 -50.48,101.08 -47.15,102.56 -43.82,104.05 -41.68,104.47 -39.53,104.89 -37.22,105.01 -34.91,105.14 -29.65,104.31 -24.38,103.47 -20.22,103.39 -16.06,103.30 -13.55,103.09 -11.03,102.89 -8.17,101.42 -5.31,99.96 -1.52,97.64 2.26,95.33 5.90,93.25 9.54,91.17 14.37,87.97 19.20,84.76 21.43,82.61 23.66,80.46 26.55,76.66 29.43,72.86 30.39,70.74 31.35,68.63 31.68,64.79 32.01,60.95 30.52,57.25 29.03,53.55 27.47,51.46 25.92,49.37 23.70,45.63 21.48,41.89 19.34,38.72 17.21,35.56 15.43,33.57 13.66,31.58 11.32,28.53 8.99,25.48 7.13,23.53 5.27,21.58 3.84,19.78 2.40,17.99 0.65,16.39 -1.09,14.79 -3.45,12.82 -5.81,10.86 -5.19,5.06 -4.57,-0.73 -4.34,-1.44 -4.10,-2.15 -3.65,-2.75 -3.19,-3.35 -2.58,-3.77 -1.96,-4.20 -1.23,-4.40 -0.51,-4.60 0.23,-4.56 0.98,-4.53 1.67,-4.25 2.37,-3.98 2.94,-3.49 3.52,-3.01 3.91,-2.37 4.30,-1.73 4.46,-0.99 4.62,-0.26 4.54,0.47 4.47,1.22 4.15,1.90 3.84,2.58 3.33,3.13 2.81,3.68 2.15,4.03 1.49,4.38 0.75,4.51 0.01,4.63 -0.72,4.51 -1.46,4.39 -2.12,4.04 -2.79,3.69 -3.31,3.15 -3.82,2.61 -4.14,1.93 -4.46,1.25 -4.54,0.50 -4.62,-0.23 -4.47,-0.96 -4.31,-1.70 -3.92,-2.34 -3.54,-2.98 -2.97,-3.47 -2.40,-3.96 -1.70,-4.24 -1.01,-4.52 -0.26,-4.56 0.48,-4.61 1.20,-4.41 1.93,-4.21 2.55,-3.79 3.17,-3.37 3.63,-2.78 4.08,-2.18 4.33,-1.47 4.57,-0.76 4.57,-0.01 4.57,0.73 4.57,0.73 4.57,0.73 3.42,3.34 2.27,5.96 4.72,8.11 7.18,10.26 9.38,13.13 11.59,16.00 13.42,18.21 15.24,20.43 17.70,23.32 20.17,26.21 21.96,28.53 23.74,30.85 26.13,33.96 28.51,37.07 31.11,40.36 33.72,43.66 35.79,46.52 37.86,49.38 39.49,52.94 41.12,56.50 41.38,59.22 41.63,61.93 41.28,64.07 40.93,66.20 40.16,69.41 39.39,72.61 37.96,75.20 36.53,77.80 32.83,82.05 29.13,86.29 26.48,88.72 23.83,91.14 19.13,94.84 14.43,98.53 11.10,101.09 7.77,103.65 3.19,106.19 -1.39,108.74 -6.00,110.21 -10.62,111.68 -13.10,111.66 -15.57,111.65 -19.29,112.02 -23.00,112.39 -26.52,113.02 -30.04,113.65 -32.90,113.86 -35.76,114.07 -38.74,113.66 -41.73,113.25 -44.30,112.42 -46.88,111.59 -50.80,110.13 -54.73,108.66 -57.57,107.03 -60.41,105.40 -63.22,103.47 -66.04,101.55 -68.06,99.55 -70.09,97.56 -72.34,95.49 -74.59,93.43 -76.77,90.97 -78.94,88.51 -81.22,85.75 -83.50,82.99 -86.04,79.59 -88.57,76.20 -91.49,71.28 -94.40,66.37 -95.94,62.32 -97.48,58.28 -97.68,54.47 -97.89,50.66 -97.17,47.07 -96.44,43.49 -95.18,41.35 -93.92,39.22 -92.24,36.05 -90.56,32.88 -88.74,29.41 -86.92,25.93 -85.14,22.41 -83.37,18.90 -82.00,17.04 -80.63,15.18 -79.29,13.48 -77.95,11.78 -76.09,9.84 -74.23,7.91 -71.15,5.24 -68.08,2.57 -64.46,0.62 -60.85,-1.33 -56.96,-2.77 -53.07,-4.22 -50.16,-4.28 -47.25,-4.35 -43.01,-4.88 -38.76,-5.40 -35.02,-5.40 -31.28,-5.40 -25.29,-4.83 -19.30,-4.27 -16.90,-4.13 -14.51,-4.00 -11.77,-3.87 -9.03,-3.74 -4.51,-3.94 0,-4.15 0.49,-4.09 0.99,-4.02 1.46,-3.85 1.92,-3.67 2.34,-3.39 2.75,-3.10 3.08,-2.73 3.41,-2.35 3.64,-1.91 3.88,-1.47 4.00,-0.98 4.12,-0.50 4.12,0.00 4.12,0.50 4.00,0.98 3.88,1.47 3.64,1.91 3.41,2.35 3.08,2.73 2.75,3.10 2.34,3.39 1.92,3.67 1.46,3.85 0.99,4.02 0.49,4.09 -0.00,4.15 -0.00,4.15 L 0,4.15 Z"></path></g></svg>