<svg version="1.1" xmlns="http://www.w3.org/2000/svg" viewBox="0 0 1262 718.0000000000001" width="1262" height="718.0000000000001">
  <!-- svg-source:excalidraw -->
  
  <defs>
    <style class="style-fonts">
      @font-face {
        font-family: "Virgil";
        src: url("https://excalidraw.com/Virgil.woff2");
      }
      @font-face {
        font-family: "Cascadia";
        src: url("https://excalidraw.com/Cascadia.woff2");
      }
      @font-face {
        font-family: "Assistant";
        src: url("https://excalidraw.com/Assistant-Regular.woff2");
      }
    </style>
    
  </defs>
  <rect x="0" y="0" width="1262" height="718.0000000000001" fill="#ffffff"></rect><g stroke-linecap="round" transform="translate(10 73) rotate(0 230.5 317.50000000000006)"><path d="M32 0 C151.73 -2.35, 273.54 -0.46, 429 0 C446.9 -1.56, 458.58 7.67, 461 32 C457.8 251.81, 458.92 473.99, 461 603 C463.8 624.16, 449.63 632.23, 429 635 C321.6 631.01, 218 633.38, 32 635 C9.19 634.28, -3.05 624.86, 0 603 C-1.37 484.1, -2.4 364.27, 0 32 C-0.69 13.78, 9.32 -2.6, 32 0" stroke="none" stroke-width="0" fill="#a5d8ff"></path><path d="M32 0 C161.26 -1.52, 289.7 -0.03, 429 0 M32 0 C137.72 0.06, 244.81 0.06, 429 0 M429 0 C450.17 -0.77, 459.83 10.88, 461 32 M429 0 C450.98 0.48, 463.05 10.33, 461 32 M461 32 C458.97 224.26, 458.47 415.44, 461 603 M461 32 C459.31 260.33, 459.59 488.9, 461 603 M461 603 C461.97 625.72, 449.49 635.59, 429 635 M461 603 C459.16 624.81, 449.85 633.17, 429 635 M429 635 C322.79 636.83, 214.8 636.24, 32 635 M429 635 C277.48 636.96, 124.54 637.07, 32 635 M32 635 C10.22 633.16, -0.71 625.3, 0 603 M32 635 C10.77 635.81, -0.25 624.16, 0 603 M0 603 C0.06 482.73, -0.55 361.65, 0 32 M0 603 C2.03 423.13, 2.21 243.27, 0 32 M0 32 C0.01 11.2, 10.54 -1.02, 32 0 M0 32 C-1.39 12.15, 10.98 -2.11, 32 0" stroke="#1e1e1e" stroke-width="2" fill="none"></path></g><g transform="translate(43 101) rotate(0 23.991666793823242 12.5)"><text x="0" y="17.52" font-family="Virgil, Segoe UI Emoji" font-size="20px" fill="#1e1e1e" text-anchor="start" style="white-space: pre;" direction="ltr" dominant-baseline="alphabetic">Wapp</text></g><g stroke-linecap="round" transform="translate(33 180) rotate(0 205 254.5)"><path d="M32 0 C113.3 -2.49, 199.71 -2.25, 378 0 C396.83 1.12, 406.73 14.25, 410 32 C406.88 131.96, 408.29 233.16, 410 477 C409.9 499.38, 395.75 510.29, 378 509 C266.34 508.67, 155.89 508.94, 32 509 C10.53 511.9, -0.61 496.37, 0 477 C0.59 301.4, 1.34 126.97, 0 32 C2.21 13.7, 7.34 1.56, 32 0" stroke="none" stroke-width="0" fill="#fcc2d7"></path><path d="M32 0 C137.42 0.82, 241.42 1.46, 378 0 M32 0 C146.69 1.67, 260.59 0.53, 378 0 M378 0 C400.52 -0.12, 408.59 9.03, 410 32 M378 0 C398.54 0.19, 407.96 12.6, 410 32 M410 32 C409.17 122.82, 410.16 212.64, 410 477 M410 32 C410.3 183.99, 410.84 336.43, 410 477 M410 477 C409.64 498.6, 399.96 509.36, 378 509 M410 477 C411.94 497.51, 400.04 507.39, 378 509 M378 509 C260.93 508.31, 142.64 510.28, 32 509 M378 509 C305 509.64, 232.39 510.41, 32 509 M32 509 C12.26 509.54, 1.02 499.31, 0 477 M32 509 C12.85 509.57, 0.26 496.68, 0 477 M0 477 C0.44 358.64, -0.16 238.39, 0 32 M0 477 C-1.8 339.18, -1.22 200.9, 0 32 M0 32 C-1.79 9.24, 11.46 -0.65, 32 0 M0 32 C-1.6 11.14, 11.94 -0.08, 32 0" stroke="#1e1e1e" stroke-width="2" fill="none"></path></g><g transform="translate(63 199) rotate(0 32.67499923706055 12.5)"><text x="0" y="17.52" font-family="Virgil, Segoe UI Emoji" font-size="20px" fill="#1e1e1e" text-anchor="start" style="white-space: pre;" direction="ltr" dominant-baseline="alphabetic">Module</text></g><g transform="translate(168 151) rotate(0 61.19166564941406 12.5)"><text x="0" y="17.52" font-family="Virgil, Segoe UI Emoji" font-size="20px" fill="#e03131" text-anchor="start" style="white-space: pre;" direction="ltr" dominant-baseline="alphabetic">Root Module</text></g><g stroke-linecap="round" transform="translate(51 248) rotate(0 186.5 130.5)"><path d="M32 0 C134.72 -0.77, 237.98 -3.46, 341 0 C362.23 0.43, 370.94 8.4, 373 32 C374.45 83.83, 369.54 137.97, 373 229 C372.35 249.53, 362.88 259.21, 341 261 C233.1 256.61, 131.35 256.13, 32 261 C14.05 260.59, 0.4 253.19, 0 229 C6.36 189.79, 5.62 143.12, 0 32 C2.68 10.31, 12.69 1.63, 32 0" stroke="none" stroke-width="0" fill="#ffd8a8"></path><path d="M32 0 C120.79 -1.85, 208.09 -2, 341 0 M32 0 C144 1.48, 255.88 0.92, 341 0 M341 0 C361.1 1.11, 371.78 11.01, 373 32 M341 0 C363.89 1.76, 372.06 9.99, 373 32 M373 32 C374.21 77.71, 375.23 127.76, 373 229 M373 32 C373.48 102.82, 374.13 173.45, 373 229 M373 229 C374.3 250.01, 361.45 261.54, 341 261 M373 229 C372.35 248.87, 364.52 260.9, 341 261 M341 261 C275.61 259.41, 212.51 260.47, 32 261 M341 261 C277.07 260.43, 211.76 260.46, 32 261 M32 261 C9.7 261.6, -1.46 249.15, 0 229 M32 261 C11.22 259.12, 0.21 249.32, 0 229 M0 229 C1.41 179.16, 0.68 126.42, 0 32 M0 229 C0.58 181.41, 0.44 133.54, 0 32 M0 32 C1.25 11.32, 9.99 1.82, 32 0 M0 32 C-0.01 11.5, 9.53 -1.51, 32 0" stroke="#1e1e1e" stroke-width="2" fill="none"></path></g><g transform="translate(78 271) rotate(0 53.63333511352539 12.5)"><text x="0" y="17.52" font-family="Virgil, Segoe UI Emoji" font-size="20px" fill="#1e1e1e" text-anchor="start" style="white-space: pre;" direction="ltr" dominant-baseline="alphabetic">Sub-Module</text></g><g stroke-linecap="round" transform="translate(69 315) rotate(0 168.5 67)"><path d="M32 0 C96.55 0.79, 163.39 -2.96, 305 0 C322.75 0.93, 333.82 11.81, 337 32 C336.54 56.83, 338.11 88.4, 337 102 C338.68 122.56, 329.87 136.12, 305 134 C245.28 136.32, 182.94 135.49, 32 134 C10.43 137.08, -1.47 126.86, 0 102 C0.55 79.51, 4.44 56.74, 0 32 C-0.48 13.27, 12.74 -3.51, 32 0" stroke="none" stroke-width="0" fill="#ffec99"></path><path d="M32 0 C93.43 -2.31, 155.87 -1.75, 305 0 M32 0 C94.49 1.14, 158.41 1.27, 305 0 M305 0 C328.25 -1.82, 335.69 10.69, 337 32 M305 0 C327.99 -0.35, 335.9 8.67, 337 32 M337 32 C339.46 58.97, 335.86 82.69, 337 102 M337 32 C336.94 47.8, 338.23 64.98, 337 102 M337 102 C338.28 122.1, 327.53 132.66, 305 134 M337 102 C339.04 123.94, 326.1 133.28, 305 134 M305 134 C233.83 135.95, 164.03 134.26, 32 134 M305 134 C249.99 134.97, 194.89 135.49, 32 134 M32 134 C11.92 134.23, 1.12 122.82, 0 102 M32 134 C9.85 132.27, 1.44 125.04, 0 102 M0 102 C-1.13 75.27, 0.75 47.01, 0 32 M0 102 C0.12 81.68, 0.39 61.1, 0 32 M0 32 C-1.92 10.53, 11.35 0.67, 32 0 M0 32 C-1.76 11.15, 8.76 -0.25, 32 0" stroke="#1e1e1e" stroke-width="2" fill="none"></path></g><g transform="translate(98 340) rotate(0 53.63333511352539 12.5)"><text x="0" y="17.52" font-family="Virgil, Segoe UI Emoji" font-size="20px" fill="#1e1e1e" text-anchor="start" style="white-space: pre;" direction="ltr" dominant-baseline="alphabetic">Sub-Module</text></g><g stroke-linecap="round" transform="translate(47 529) rotate(0 186.5 67)"><path d="M32 0 C150.48 4.04, 268.2 2.74, 341 0 C361.67 -1.06, 374.14 7.57, 373 32 C373.57 54.22, 376.99 77.11, 373 102 C371.53 120.5, 364.5 131.53, 341 134 C245.78 131.47, 148.88 132.2, 32 134 C13.87 134.51, -3.07 126.74, 0 102 C-2.66 85.1, 0.02 64.68, 0 32 C0.58 10.11, 10.94 -0.11, 32 0" stroke="none" stroke-width="0" fill="#ffd8a8"></path><path d="M32 0 C114.11 -2.58, 197.5 -0.9, 341 0 M32 0 C149.93 -1.37, 266.92 -1.58, 341 0 M341 0 C362.11 -1.14, 371.27 11.54, 373 32 M341 0 C363.06 0.26, 372.33 12.18, 373 32 M373 32 C374.52 58.09, 373.81 89.03, 373 102 M373 32 C374.07 55.46, 373.08 78.27, 373 102 M373 102 C371.22 124.86, 363.75 134.51, 341 134 M373 102 C374.96 122.67, 364.16 132.39, 341 134 M341 134 C238.73 131.56, 138.5 132.35, 32 134 M341 134 C256.04 136.12, 170.93 135.15, 32 134 M32 134 C11.89 135.3, 0.09 122.71, 0 102 M32 134 C8.68 133.55, 1.09 125.1, 0 102 M0 102 C1.86 80.39, -0.33 56.73, 0 32 M0 102 C1.1 77.27, -0.21 54.58, 0 32 M0 32 C-0.94 9.07, 11.25 0.58, 32 0 M0 32 C1 8.99, 11.24 -2, 32 0" stroke="#1e1e1e" stroke-width="2" fill="none"></path></g><g transform="translate(80 557) rotate(0 53.63333511352539 12.5)"><text x="0" y="17.52" font-family="Virgil, Segoe UI Emoji" font-size="20px" fill="#1e1e1e" text-anchor="start" style="white-space: pre;" direction="ltr" dominant-baseline="alphabetic">Sub-Module</text></g><g transform="translate(15 25) rotate(0 117.44999694824219 12.5)"><text x="0" y="17.52" font-family="Virgil, Segoe UI Emoji" font-size="20px" fill="#1e1e1e" text-anchor="start" style="white-space: pre;" direction="ltr" dominant-baseline="alphabetic">WAPP - Tree Structure</text></g><g transform="translate(741 10) rotate(0 88.3499984741211 12.5)"><text x="0" y="17.52" font-family="Virgil, Segoe UI Emoji" font-size="20px" fill="#1e1e1e" text-anchor="start" style="white-space: pre;" direction="ltr" dominant-baseline="alphabetic">Module - Detailed</text></g><g stroke-linecap="round" transform="translate(727 64) rotate(0 262.5 318.50000000000006)"><path d="M32 0 C146.1 -1.74, 258.55 -0.71, 493 0 C516.13 0.06, 527.64 11.41, 525 32 C528.57 164.93, 527.88 295.72, 525 605 C528.49 623.77, 514.62 636.81, 493 637 C390.49 636.77, 288.53 637.45, 32 637 C7.54 634.45, -2.47 628.91, 0 605 C-2.93 385.64, -3.88 163.49, 0 32 C0.92 12.26, 9.42 -1.83, 32 0" stroke="none" stroke-width="0" fill="#fcc2d7"></path><path d="M32 0 C206.07 -1.19, 379.87 -0.93, 493 0 M32 0 C204.96 -0.9, 378.27 -0.77, 493 0 M493 0 C512.41 1.97, 525.5 11.2, 525 32 M493 0 C514.59 -1.11, 526.29 12.73, 525 32 M525 32 C523.75 185.26, 522.57 340.49, 525 605 M525 32 C526.49 168.5, 526.61 304.96, 525 605 M525 605 C523.4 627.95, 514.1 638.92, 493 637 M525 605 C523.59 627.92, 516.33 636.72, 493 637 M493 637 C320.46 637.25, 146.9 638.15, 32 637 M493 637 C353.39 638.45, 214.88 638.66, 32 637 M32 637 C12.17 636.47, -1.5 625.51, 0 605 M32 637 C10.62 636.32, -0.72 624.76, 0 605 M0 605 C0.37 461.14, -0.62 316.71, 0 32 M0 605 C0.58 489.01, 1.3 372.92, 0 32 M0 32 C-1.08 10.95, 11.39 -0.56, 32 0 M0 32 C0.62 8.83, 10.43 1.79, 32 0" stroke="#1e1e1e" stroke-width="2" fill="none"></path></g><g transform="translate(753 83) rotate(0 32.67499923706055 12.5)"><text x="0" y="17.52" font-family="Virgil, Segoe UI Emoji" font-size="20px" fill="#1e1e1e" text-anchor="start" style="white-space: pre;" direction="ltr" dominant-baseline="alphabetic">Module</text></g><g stroke-linecap="round" transform="translate(767 143) rotate(0 230.5 67)"><path d="M32 0 C164.26 3.74, 297.63 1.09, 429 0 C450.75 -3.55, 463.16 7.84, 461 32 C463.38 57.94, 461.7 80.79, 461 102 C458.27 120.87, 453.65 133.85, 429 134 C292.6 135.02, 156.26 134.85, 32 134 C11.13 132.93, 1.56 119.82, 0 102 C-3.38 72.85, -4.2 47.96, 0 32 C-3.09 10.22, 9.78 1.7, 32 0" stroke="none" stroke-width="0" fill="#ffd8a8"></path><path d="M32 0 C182.58 -1.63, 333.93 -2.7, 429 0 M32 0 C124.87 -1.41, 218.93 -1.51, 429 0 M429 0 C449.18 0.74, 460.14 9.4, 461 32 M429 0 C450.45 0.92, 460.05 12.48, 461 32 M461 32 C459.06 56.12, 460.9 76.16, 461 102 M461 32 C461.38 49.33, 460.28 65.24, 461 102 M461 102 C461.29 125.04, 451.73 133.24, 429 134 M461 102 C461.42 125.46, 452.42 132.67, 429 134 M429 134 C326.06 135.25, 225.41 134.43, 32 134 M429 134 C289.86 133.05, 151.23 132.72, 32 134 M32 134 C10.28 132.51, 0.82 122.85, 0 102 M32 134 C10.46 134.55, 1.33 124.11, 0 102 M0 102 C-2.62 78.27, -0.94 57.97, 0 32 M0 102 C-1.14 80.87, 0.24 58.07, 0 32 M0 32 C-1.14 9.66, 9.39 -0.98, 32 0 M0 32 C-0.82 10.15, 12.7 1.2, 32 0" stroke="#1e1e1e" stroke-width="2" fill="none"></path></g><g stroke-linecap="round" transform="translate(750 126) rotate(0 231.5 67)"><path d="M32 0 C147.92 0.5, 264.97 1.85, 431 0 C451.45 2.24, 466.22 12.3, 463 32 C466.03 49.99, 462.12 69.46, 463 102 C462.71 126.22, 449.49 135.2, 431 134 C322.94 139.29, 214.7 137.55, 32 134 C10.06 134.61, 1.84 123.72, 0 102 C-4.58 76.15, 0.16 60.84, 0 32 C3.13 13.3, 12.33 -3.31, 32 0" stroke="none" stroke-width="0" fill="#ffd8a8"></path><path d="M32 0 C128.25 2.91, 222.96 2.68, 431 0 M32 0 C184.59 -0.45, 336.79 0.53, 431 0 M431 0 C452.92 0.97, 462.17 12.5, 463 32 M431 0 C453.66 2.19, 462.25 10.91, 463 32 M463 32 C464.3 59.74, 463.62 83.28, 463 102 M463 32 C462.38 56.35, 462.22 82.4, 463 102 M463 102 C464.11 125.09, 454.23 133.72, 431 134 M463 102 C462.69 121.83, 452.45 132.72, 431 134 M431 134 C275.22 132.93, 121.74 133.09, 32 134 M431 134 C341.69 133.14, 253.27 133.36, 32 134 M32 134 C9.91 133.96, 1.01 124.56, 0 102 M32 134 C11.49 132.49, 1.44 124.49, 0 102 M0 102 C-1.03 75.78, -0.99 51.97, 0 32 M0 102 C0.64 81.92, 0.42 62.31, 0 32 M0 32 C-1.13 11.51, 11.82 1.74, 32 0 M0 32 C1.99 9.7, 12.6 1.7, 32 0" stroke="#1e1e1e" stroke-width="2" fill="none"></path></g><g transform="translate(783 154) rotate(0 53.63333511352539 12.5)"><text x="0" y="17.52" font-family="Virgil, Segoe UI Emoji" font-size="20px" fill="#1e1e1e" text-anchor="start" style="white-space: pre;" direction="ltr" dominant-baseline="alphabetic">Sub-Module</text></g><g stroke-linecap="round" transform="translate(759 325) rotate(0 227.5 40.5)"><path d="M20.25 0 C142.87 4.29, 269.97 2.43, 434.75 0 C446.91 -0.01, 457.68 3.46, 455 20.25 C452.47 28.51, 456.3 37.14, 455 60.75 C458.19 71.76, 448.99 80.28, 434.75 81 C314.12 85.72, 194.15 82.44, 20.25 81 C6.91 78.28, 0.12 74.23, 0 60.75 C-1.58 56.04, 0.36 45.44, 0 20.25 C-0.18 7.01, 10.31 2.01, 20.25 0" stroke="none" stroke-width="0" fill="#b2f2bb"></path><path d="M20.25 0 C113.45 -1.62, 208.08 -0.04, 434.75 0 M20.25 0 C157.96 1.31, 296.87 0.48, 434.75 0 M434.75 0 C449.78 -0.03, 453.77 8.47, 455 20.25 M434.75 0 C447.61 1.47, 453.55 6.41, 455 20.25 M455 20.25 C455.98 34.95, 456.51 51.5, 455 60.75 M455 20.25 C455.2 36.47, 454.36 52.53, 455 60.75 M455 60.75 C455.08 72.34, 449.61 81.53, 434.75 81 M455 60.75 C455.3 76.37, 449.29 79.02, 434.75 81 M434.75 81 C331.42 79.83, 228.48 79.45, 20.25 81 M434.75 81 C281.88 82.51, 128.34 81.92, 20.25 81 M20.25 81 C6.95 82.86, -1.81 73.16, 0 60.75 M20.25 81 C5.16 79.44, 2.07 75.65, 0 60.75 M0 60.75 C1.17 44.39, 1.46 32.28, 0 20.25 M0 60.75 C-1.14 49.27, -0.59 38.59, 0 20.25 M0 20.25 C-1.01 4.99, 4.97 -0.92, 20.25 0 M0 20.25 C-1.04 8.33, 8.36 2.26, 20.25 0" stroke="#1e1e1e" stroke-width="2" fill="none"></path></g><g transform="translate(777 341) rotate(0 28.70833396911621 12.5)"><text x="0" y="17.52" font-family="Virgil, Segoe UI Emoji" font-size="20px" fill="#1e1e1e" text-anchor="start" style="white-space: pre;" direction="ltr" dominant-baseline="alphabetic">Config</text></g><g stroke-linecap="round" transform="translate(757 440) rotate(0 227.5 40.5)"><path d="M20.25 0 C104.16 1.88, 191.94 -1.28, 434.75 0 C445.03 0.85, 456.46 8.51, 455 20.25 C457.09 33.63, 456.06 45.98, 455 60.75 C453.75 71.43, 451.13 84.42, 434.75 81 C272.24 79.05, 113 78.36, 20.25 81 C3.86 83.92, 0.89 77.28, 0 60.75 C-2.09 48.05, -1.19 37.07, 0 20.25 C0.65 4.91, 7.3 2.98, 20.25 0" stroke="none" stroke-width="0" fill="#b2f2bb"></path><path d="M20.25 0 C136.22 0.22, 253.55 0.92, 434.75 0 M20.25 0 C107.78 -1.72, 194.63 -1.19, 434.75 0 M434.75 0 C449.29 0.11, 456.65 5.39, 455 20.25 M434.75 0 C449.62 -0.93, 453.16 6.33, 455 20.25 M455 20.25 C456.69 34.23, 455.05 52.52, 455 60.75 M455 20.25 C455.18 29.92, 455.53 39.63, 455 60.75 M455 60.75 C455.29 74.12, 448.42 82.55, 434.75 81 M455 60.75 C454.17 75.01, 448.84 81.87, 434.75 81 M434.75 81 C340.26 79.14, 246 79.01, 20.25 81 M434.75 81 C299.25 80.15, 164.62 79.65, 20.25 81 M20.25 81 C6.44 79.55, -0.83 73.02, 0 60.75 M20.25 81 C6.64 79.54, 1.97 73, 0 60.75 M0 60.75 C1.25 50.67, -0.78 44.04, 0 20.25 M0 60.75 C0.15 50.33, -0.7 38.14, 0 20.25 M0 20.25 C1.64 7.89, 8.06 1.94, 20.25 0 M0 20.25 C-2.04 6.08, 8.93 -2, 20.25 0" stroke="#1e1e1e" stroke-width="2" fill="none"></path></g><g transform="translate(776 456) rotate(0 34.93333435058594 12.5)"><text x="0" y="17.52" font-family="Virgil, Segoe UI Emoji" font-size="20px" fill="#1e1e1e" text-anchor="start" style="white-space: pre;" direction="ltr" dominant-baseline="alphabetic">Handler</text></g></svg>